<svg width="59" height="59" viewBox="0 0 59 59" fill="none" xmlns="http://www.w3.org/2000/svg">
<circle cx="29.5" cy="29.5" r="29.5" fill="#BCBCBC"/>
<path d="M34.9609 29.3571C34.9609 29.2232 34.894 29.0725 34.7935 28.9721L26.9922 21.1708C26.8917 21.0703 26.7411 21.0033 26.6071 21.0033C26.4732 21.0033 26.3225 21.0703 26.2221 21.1708L25.385 22.0078C25.2846 22.1083 25.2176 22.2589 25.2176 22.3929C25.2176 22.5268 25.2846 22.6775 25.385 22.7779L31.9643 29.3571L25.385 35.9364C25.2846 36.0368 25.2176 36.1875 25.2176 36.3214C25.2176 36.4721 25.2846 36.606 25.385 36.7065L26.2221 37.5435C26.3225 37.644 26.4732 37.7109 26.6071 37.7109C26.7411 37.7109 26.8917 37.644 26.9922 37.5435L34.7935 29.7422C34.894 29.6417 34.9609 29.4911 34.9609 29.3571Z" fill="white"/>
</svg>
