<svg width="59" height="59" viewBox="0 0 59 59" fill="none" xmlns="http://www.w3.org/2000/svg">
<circle cx="29.5" cy="29.5" r="29.5" transform="rotate(90 29.5 29.5)" fill="#DA2F2F"/>
<path d="M29.6429 34.9609C29.7768 34.9609 29.9275 34.894 30.0279 34.7935L37.8292 26.9922C37.9297 26.8917 37.9967 26.7411 37.9967 26.6071C37.9967 26.4732 37.9297 26.3225 37.8292 26.2221L36.9922 25.385C36.8917 25.2846 36.7411 25.2176 36.6071 25.2176C36.4732 25.2176 36.3225 25.2846 36.2221 25.385L29.6429 31.9643L23.0636 25.385C22.9632 25.2846 22.8125 25.2176 22.6786 25.2176C22.5279 25.2176 22.394 25.2846 22.2935 25.385L21.4565 26.2221C21.356 26.3225 21.2891 26.4732 21.2891 26.6071C21.2891 26.7411 21.356 26.8917 21.4565 26.9922L29.2578 34.7935C29.3583 34.894 29.5089 34.9609 29.6429 34.9609Z" fill="white"/>
</svg>
