<svg width="1600" height="1475" viewBox="0 0 1600 1475" fill="none" xmlns="http://www.w3.org/2000/svg">
<mask id="mask0_39_433" style="mask-type:alpha" maskUnits="userSpaceOnUse" x="-113" y="0" width="1826" height="1475">
<rect x="-112.371" width="1824.74" height="1475" fill="#C4C4C4"/>
</mask>
<g mask="url(#mask0_39_433)">
<path d="M493.475 -153.816C493.475 221.805 188.19 526.307 -188.402 526.307C-564.994 526.307 -870.28 221.805 -870.28 -153.816C-870.28 -529.437 -564.994 -833.939 -188.402 -833.939C188.19 -833.939 493.475 -529.437 493.475 -153.816Z" stroke="#E3E3E3"/>
<path d="M2464.58 -114.171C2464.58 319.562 2112.06 671.174 1677.21 671.174C1242.35 671.174 889.836 319.562 889.836 -114.171C889.836 -547.904 1242.35 -899.516 1677.21 -899.516C2112.06 -899.516 2464.58 -547.904 2464.58 -114.171Z" stroke="#E3E3E3"/>
<path d="M2226.98 -114.173C2226.98 188.676 1980.84 434.186 1677.21 434.186C1373.57 434.186 1127.43 188.676 1127.43 -114.173C1127.43 -417.022 1373.57 -662.532 1677.21 -662.532C1980.84 -662.532 2226.98 -417.022 2226.98 -114.173Z" stroke="#E3E3E3"/>
</g>
</svg>
