<svg width="18" height="18" viewBox="0 0 18 18" fill="none" xmlns="http://www.w3.org/2000/svg">
<path d="M17.7278 16.4499C17.8963 16.6184 17.9974 16.8542 17.9974 17.0901C17.9974 17.326 17.8963 17.5619 17.7278 17.7304C17.5593 17.8989 17.3234 18 17.0875 18C16.8517 18 16.6157 17.8989 16.4473 17.7304L9.00003 10.2832L1.5528 17.7304C1.38431 17.8989 1.14843 18 0.912527 18C0.67662 18 0.440744 17.8988 0.272253 17.7304C0.103761 17.5619 0.00268555 17.326 0.00268555 17.0901C0.00268555 16.8542 0.103793 16.6183 0.272253 16.4498L7.71948 9.00261L0.272285 1.55542C0.0364093 1.31954 -0.0310064 0.982561 0.0364093 0.67927C0.103825 0.375979 0.373392 0.140103 0.676684 0.0390276C0.979975 -0.0620482 1.31696 0.0390276 1.55283 0.274903L9.00006 7.72213L16.4473 0.274903C16.7842 -0.06208 17.3571 -0.06208 17.7278 0.274903C18.0648 0.611886 18.0648 1.18474 17.7278 1.55542L10.2805 9.00264L17.7278 16.4499Z" fill="white"/>
</svg>
