<svg width="129" height="161" viewBox="0 0 129 161" fill="none" xmlns="http://www.w3.org/2000/svg">
<rect y="160.5" width="160" height="129" rx="23" transform="rotate(-90 0 160.5)" fill="#DA2F2F"/>
<path d="M37.7972 79.9966C32.0416 79.9966 27.3594 75.3569 27.3594 69.6558C27.3594 63.954 32.0416 59.3143 37.7972 59.3143C43.5522 59.3143 48.2337 63.9533 48.2337 69.6558C48.2337 75.3576 43.5522 79.9966 37.7972 79.9966ZM37.7972 62.2166C33.6415 62.2166 30.2617 65.5539 30.2617 69.6558C30.2617 73.757 33.6415 77.0943 37.7972 77.0943C41.9515 77.0943 45.3314 73.757 45.3314 69.6558C45.3314 65.5539 41.9515 62.2166 37.7972 62.2166Z" fill="white"/>
<path d="M41.996 108.628H23.7929C21.7013 108.628 20 106.937 20 104.859V100.113C20 90.3953 27.9834 82.4891 37.797 82.4891C41.6566 82.4891 45.3305 83.6937 48.4184 85.9717C49.0632 86.4479 49.2006 87.3563 48.7245 88.0018C48.2483 88.6458 47.3407 88.7833 46.6952 88.3079C44.1096 86.4004 41.033 85.3914 37.797 85.3914C29.584 85.3914 22.9023 91.9959 22.9023 100.113V104.859C22.9023 105.337 23.3019 105.726 23.7929 105.726H41.9967C42.7973 105.726 43.4478 106.376 43.4478 107.177C43.4478 107.978 42.7973 108.628 41.996 108.628Z" fill="white"/>
<path d="M106.177 107.53H87.9738C87.1731 107.53 86.5226 106.88 86.5226 106.079C86.5226 105.278 87.1731 104.628 87.9738 104.628H106.177C106.669 104.628 107.068 104.239 107.068 103.762V99.015C107.068 90.897 100.386 84.2939 92.1734 84.2939C88.7433 84.2939 85.3946 85.4751 82.7438 87.6206C82.1217 88.1244 81.2084 88.0287 80.7032 87.4059C80.1994 86.7831 80.2943 85.869 80.9186 85.3645C84.0837 82.8031 88.0807 81.3916 92.1734 81.3916C101.986 81.3916 109.97 89.2971 109.97 99.015V103.762C109.97 105.839 108.268 107.53 106.177 107.53Z" fill="white"/>
<path d="M92.1742 79.2796C86.4193 79.2796 81.7378 74.6406 81.7378 68.9388C81.7378 63.237 86.4193 58.5973 92.1742 58.5973C97.9299 58.5973 102.612 63.2363 102.612 68.9388C102.612 74.6413 97.9292 79.2796 92.1742 79.2796ZM92.1742 61.4996C88.0199 61.4996 84.6401 64.8369 84.6401 68.9388C84.6401 73.0407 88.0199 76.3773 92.1742 76.3773C96.33 76.3773 99.7098 73.0407 99.7098 68.9388C99.7098 64.8369 96.3293 61.4996 92.1742 61.4996Z" fill="white"/>
<path d="M84.6802 113.35H45.2897C42.673 113.35 40.5444 111.237 40.5444 108.639V101.963C40.5444 88.621 51.5073 77.7665 64.9849 77.7665C78.4625 77.7665 89.4254 88.621 89.4254 101.963V108.639C89.4254 111.237 87.2969 113.35 84.6802 113.35ZM64.9849 80.6695C53.1087 80.6695 43.4467 90.2223 43.4467 101.964V108.64C43.4467 109.637 44.2736 110.448 45.2897 110.448H84.6795C85.6956 110.448 86.5225 109.637 86.5225 108.64V101.964C86.5232 90.2223 76.8612 80.6695 64.9849 80.6695Z" fill="white"/>
<path d="M64.4801 76.0712C57.0855 76.0712 51.0684 70.1114 51.0684 62.7849C51.0684 55.459 57.0848 49.5 64.4801 49.5C71.8761 49.5 77.8925 55.4597 77.8925 62.7856C77.8925 70.1121 71.8753 76.0712 64.4801 76.0712ZM64.4801 52.4023C58.6854 52.4023 53.9706 57.0604 53.9706 62.7856C53.9706 68.5115 58.6854 73.1696 64.4801 73.1696C70.2754 73.1696 74.9902 68.5115 74.9902 62.7856C74.9902 57.0604 70.2754 52.4023 64.4801 52.4023Z" fill="white"/>
</svg>
