<svg width="129" height="161" viewBox="0 0 129 161" fill="none" xmlns="http://www.w3.org/2000/svg">
<rect y="160.5" width="160" height="129" rx="23" transform="rotate(-90 0 160.5)" fill="#DA2F2F"/>
<path d="M60.4031 107.328C60.8261 107.76 61.4021 108 62.0051 108C62.6082 108 63.1842 107.76 63.6072 107.328L92.3909 78.165C104.395 66.006 95.8651 45 78.7941 45C68.5425 45 63.8383 52.533 62.0051 53.94C60.163 52.527 55.4888 45 45.2162 45C28.1992 45 19.5647 65.952 31.6224 78.165L60.4031 107.328Z" fill="#F34646"/>
<path d="M65.4748 114.279L65.4707 114.274L36.69 85.1114L36.6898 85.1111C25.5452 73.8231 33.5628 54.5 49.2162 54.5C56.8179 54.5 60.8456 58.7716 63.375 61.4541C64.0379 62.1571 64.5978 62.751 65.0922 63.1302L66.0054 63.8307L66.9185 63.1299C67.4089 62.7535 67.9663 62.1632 68.6269 61.4637C71.1579 58.7835 75.2029 54.5 82.7941 54.5C98.4913 54.5 106.421 73.8698 95.3235 85.1112L95.3233 85.1113L66.5397 114.274L66.5355 114.279C66.3968 114.42 66.208 114.5 66.0051 114.5C65.8023 114.5 65.6135 114.42 65.4748 114.279Z" stroke="white" stroke-width="3"/>
</svg>
