<svg width="129" height="161" viewBox="0 0 129 161" fill="none" xmlns="http://www.w3.org/2000/svg">
<rect y="160.5" width="160" height="129" rx="23" transform="rotate(-90 0 160.5)" fill="#DA2F2F"/>
<path d="M89.1213 69.8269C89.1213 55.2385 76.9173 43.5312 62.27 44.5634C49.969 45.4258 39.9822 55.4606 39.0708 67.8931C38.2693 78.8426 44.3518 88.4462 53.4014 92.7516C54.7588 93.3983 55.625 94.7768 55.625 96.2925V102.296V106.83C55.625 111.208 58.7988 115.049 63.1038 115.532C68.191 116.101 72.5024 112.09 72.5024 107.059V96.2925C72.5024 94.7768 73.3751 93.3983 74.7325 92.7516C83.2326 88.6945 89.1213 79.9597 89.1213 69.8269Z" stroke="white" stroke-width="2.5" stroke-miterlimit="10"/>
<path d="M72.4961 101.95H55.6187" stroke="white" stroke-width="2.5" stroke-miterlimit="10"/>
<path d="M64.0606 71.4535C59.1544 71.4535 55.1597 75.4909 55.1597 80.4496V85.6891C57.7646 87.2571 60.8092 88.1652 64.0606 88.1652C67.3119 88.1652 70.3565 87.2636 72.9614 85.6891V80.4496C72.9614 75.4909 68.9667 71.4535 64.0606 71.4535Z" fill="#F34646"/>
<path d="M50.7705 80.4496C50.7705 73.0411 56.7303 67.0175 64.0604 67.0175C71.3906 67.0175 77.3503 73.0411 77.3503 80.4496V81.9326C79.923 78.8621 81.4743 74.8965 81.4743 70.565C81.4743 60.8438 73.6788 52.9648 64.0604 52.9648C54.442 52.9648 46.6465 60.8438 46.6465 70.565C46.6465 74.903 48.1978 78.8686 50.7705 81.9326V80.4496Z" fill="#F34646"/>
</svg>
