<svg width="81" height="81" viewBox="0 0 81 81" fill="none" xmlns="http://www.w3.org/2000/svg">
<path d="M5.23341 5.57126C-1.05325 12.1013 0.233412 19.0379 0.233412 40.1113C0.233412 57.6113 -2.81992 75.1546 13.1601 79.2846C18.1501 80.5679 62.3634 80.5679 67.3467 79.2779C74.0001 77.5613 79.4134 72.1646 80.1534 62.7546C80.2567 61.4413 80.2567 18.8046 80.1501 17.4646C79.3634 7.44126 73.1934 1.66459 65.0634 0.494588C63.2001 0.224588 62.8267 0.144588 53.2667 0.127922C19.3567 0.144588 11.9234 -1.36541 5.23341 5.57126Z" fill="url(#paint0_linear_76_103)"/>
<path d="M39.4866 22.0169C32.3243 22.0169 25.523 21.3797 22.9251 28.0469C21.8521 30.8006 22.0079 34.3768 22.0079 39.4975C22.0079 43.991 21.8639 48.2142 22.9251 50.9462C25.517 57.6173 32.3736 56.9782 39.4826 56.9782C46.3412 56.9782 53.4127 57.6923 56.0421 50.9462C57.1172 48.1649 56.9594 44.6419 56.9594 39.4975C56.9594 32.6686 57.3361 28.26 54.0242 24.95C50.6709 21.5967 46.136 22.0169 39.4787 22.0169H39.4866ZM37.9204 25.167C52.8604 25.1433 54.7619 23.4825 53.7126 46.5553C53.3397 54.7157 47.1262 53.8202 39.4886 53.8202C25.5624 53.8202 25.162 53.4217 25.162 39.4896C25.162 25.3958 26.2666 25.1749 37.9204 25.1631V25.167ZM48.8167 28.0686C47.6588 28.0686 46.7199 29.0076 46.7199 30.1654C46.7199 31.3233 47.6588 32.2623 48.8167 32.2623C49.9746 32.2623 50.9135 31.3233 50.9135 30.1654C50.9135 29.0076 49.9746 28.0686 48.8167 28.0686ZM39.4866 30.5205C34.5296 30.5205 30.5115 34.5405 30.5115 39.4975C30.5115 44.4545 34.5296 48.4726 39.4866 48.4726C44.4436 48.4726 48.4597 44.4545 48.4597 39.4975C48.4597 34.5405 44.4436 30.5205 39.4866 30.5205ZM39.4866 33.6706C47.1894 33.6706 47.1992 45.3244 39.4866 45.3244C31.7858 45.3244 31.7739 33.6706 39.4866 33.6706Z" fill="white"/>
<defs>
<linearGradient id="paint0_linear_76_103" x1="5.38681" y1="75.0182" x2="79.7383" y2="10.6678" gradientUnits="userSpaceOnUse">
<stop stop-color="#FFDD55"/>
<stop offset="0.5" stop-color="#FF543E"/>
<stop offset="1" stop-color="#C837AB"/>
</linearGradient>
</defs>
</svg>
