<svg width="32" height="28" viewBox="0 0 32 28" fill="none" xmlns="http://www.w3.org/2000/svg">
<path d="M15.736 28C15.288 28 14.856 27.8377 14.5194 27.5428C13.248 26.4311 12.0222 25.3864 10.9407 24.4648L10.9352 24.46C7.76452 21.758 5.02652 19.4246 3.12146 17.126C0.991905 14.5563 0 12.1199 0 9.45827C0 6.87226 0.886735 4.4865 2.49669 2.74016C4.12585 0.973176 6.3613 0 8.79196 0C10.6087 0 12.2724 0.574349 13.7368 1.70696C14.4759 2.27867 15.1458 2.97836 15.736 3.7945C16.3265 2.97836 16.9961 2.27867 17.7354 1.70696C19.1999 0.574349 20.8636 0 22.6803 0C25.1107 0 27.3464 0.973176 28.9756 2.74016C30.5855 4.4865 31.472 6.87226 31.472 9.45827C31.472 12.1199 30.4804 14.5563 28.3508 17.1258C26.4458 19.4246 23.708 21.7578 20.5378 24.4595C19.4544 25.3825 18.2267 26.4289 16.9524 27.5433C16.616 27.8377 16.1838 28 15.736 28ZM8.79196 1.84358C6.88234 1.84358 5.12808 2.6057 3.85188 3.98971C2.55672 5.39461 1.84334 7.33664 1.84334 9.45827C1.84334 11.6968 2.67533 13.6989 4.54077 15.9497C6.34377 18.1254 9.02559 20.4108 12.1307 23.057L12.1365 23.0618C13.222 23.987 14.4526 25.0358 15.7334 26.1557C17.0218 25.0336 18.2543 23.9832 19.342 23.0566C22.4469 20.4103 25.1285 18.1254 26.9315 15.9497C28.7967 13.6989 29.6287 11.6968 29.6287 9.45827C29.6287 7.33664 28.9153 5.39461 27.6201 3.98971C26.3442 2.6057 24.5897 1.84358 22.6803 1.84358C21.2814 1.84358 19.997 2.28827 18.863 3.16516C17.8524 3.94697 17.1484 4.93527 16.7356 5.6268C16.5233 5.9824 16.1497 6.19466 15.736 6.19466C15.3223 6.19466 14.9487 5.9824 14.7364 5.6268C14.3239 4.93527 13.6199 3.94697 12.609 3.16516C11.475 2.28827 10.1906 1.84358 8.79196 1.84358Z" fill="white"/>
</svg>
