<svg width="23" height="23" viewBox="0 0 23 23" fill="none" xmlns="http://www.w3.org/2000/svg">
<path fill-rule="evenodd" clip-rule="evenodd" d="M6.68702 0.67098C7.86035 0.617814 8.23481 0.60498 11.2222 0.60498C14.2096 0.60498 14.5841 0.617814 15.7574 0.67098C17.5459 0.752564 19.1156 1.19073 20.3761 2.45115C21.6369 3.71202 22.0746 5.28227 22.1562 7.06977C22.2094 8.2431 22.2222 8.61756 22.2222 11.605C22.2222 14.5924 22.2094 14.9669 22.1562 16.1402C22.0746 17.9286 21.6365 19.4984 20.3761 20.7588C19.1152 22.0197 17.5445 22.4574 15.7574 22.539C14.5841 22.5921 14.2096 22.605 11.2222 22.605C8.23481 22.605 7.86035 22.5921 6.68702 22.539C4.8986 22.4574 3.32881 22.0192 2.0684 20.7588C0.807521 19.4979 0.369812 17.9277 0.288229 16.1402C0.235062 14.9669 0.222229 14.5924 0.222229 11.605C0.222229 8.61756 0.235062 8.2431 0.288229 7.06977C0.369812 5.28136 0.807979 3.71156 2.0684 2.45115C3.32927 1.19027 4.89952 0.752564 6.68702 0.67098ZM15.6672 2.65101C14.5071 2.59784 14.1592 2.58684 11.2222 2.58684C8.28525 2.58684 7.93737 2.5983 6.77733 2.65101C5.52562 2.7083 4.36375 2.95901 3.47 3.85276C2.57625 4.74651 2.32554 5.90838 2.26825 7.16009C2.21508 8.32013 2.20408 8.66801 2.20408 11.605C2.20408 14.542 2.21554 14.8899 2.26825 16.0499C2.32554 17.3016 2.57625 18.4635 3.47 19.3573C4.36375 20.251 5.52562 20.5017 6.77733 20.559C7.93692 20.6122 8.28479 20.6232 11.2222 20.6232C14.1597 20.6232 14.5076 20.6117 15.6672 20.559C16.9189 20.5017 18.0807 20.251 18.9745 19.3573C19.8682 18.4635 20.119 17.3016 20.1762 16.0499C20.2294 14.8899 20.2404 14.542 20.2404 11.605C20.2404 8.66801 20.229 8.32013 20.1762 7.16009C20.119 5.90838 19.8682 4.74651 18.9745 3.85276C18.0807 2.95901 16.9189 2.7083 15.6672 2.65101Z" fill="#7D818D"/>
<path fill-rule="evenodd" clip-rule="evenodd" d="M6.22223 12.105C6.22223 9.06763 8.68438 6.60504 11.7222 6.60504C14.7601 6.60504 17.2222 9.06719 17.2222 12.105C17.2222 15.1429 14.7601 17.605 11.7222 17.605C8.68438 17.605 6.22223 15.1424 6.22223 12.105ZM8.15197 12.105C8.15197 14.0767 9.75056 15.6753 11.7222 15.6753C13.6939 15.6753 15.2925 14.0767 15.2925 12.105C15.2925 10.1333 13.6939 8.53473 11.7222 8.53473C9.75056 8.53473 8.15197 10.1333 8.15197 12.105Z" fill="#7D818D"/>
<circle cx="16.7222" cy="6.10498" r="1.5" fill="#7D818D"/>
</svg>
