<svg width="64" height="60" viewBox="0 0 64 60" fill="none" xmlns="http://www.w3.org/2000/svg">
<path fill-rule="evenodd" clip-rule="evenodd" d="M61.3519 8.60929C63.0705 11.9822 63.0705 16.3975 63.0705 25.2282V28.9627C63.0705 34.2896 63.0705 36.9527 62.4335 39.1255C60.9224 44.2787 56.8928 48.3083 51.7396 49.8194C49.5668 50.4564 46.9037 50.4564 41.5767 50.4564H39.8461L39.6408 50.4567C36.4235 50.4772 33.2893 51.4816 30.6593 53.335L30.4921 53.4542L22.2591 59.3349C19.4368 61.3506 15.728 58.4393 17.0161 55.2192C17.9286 52.9379 16.2486 50.4564 13.7917 50.4564H11.894C5.32514 50.4564 0 45.1314 0 38.5623V25.2282C0 16.3975 0 11.9822 1.71857 8.60929C3.23025 5.64242 5.64242 3.23025 8.60929 1.71857C11.9822 0 16.3975 0 25.2282 0H37.8423C46.6731 0 51.0884 0 54.4614 1.71857C57.4282 3.23025 59.8404 5.64242 61.3519 8.60929Z" fill="#DA2F2F"/>
<path d="M32.0312 40C31.8791 40 31.7271 39.9607 31.5909 39.882C31.4429 39.7967 27.9276 37.7556 24.3618 34.6802C22.2484 32.8575 20.5614 31.0496 19.3477 29.307C17.7772 27.0519 16.9874 24.8829 17.0002 22.8599C17.0151 20.506 17.8582 18.2923 19.3743 16.6266C20.9161 14.9328 22.9736 14 25.168 14C27.9802 14 30.5515 15.5753 32.0313 18.0709C33.5111 15.5754 36.0823 14 38.8946 14C40.9677 14 42.9457 14.8416 44.4643 16.3699C46.1309 18.047 47.0778 20.4166 47.0623 22.8711C47.0495 24.8905 46.2449 27.0563 44.6709 29.3082C43.4535 31.05 41.7688 32.857 39.6637 34.6792C36.1109 37.7543 32.6208 39.7953 32.474 39.8807C32.3371 39.9602 32.1841 40 32.0312 40Z" fill="white"/>
</svg>
