<svg width="23" height="23" viewBox="0 0 23 23" fill="none" xmlns="http://www.w3.org/2000/svg">
<path fill-rule="evenodd" clip-rule="evenodd" d="M1.47221 0.60498H21.6389C22.143 0.60498 22.5555 1.01748 22.5555 1.52165V21.6883C22.5555 22.1925 22.143 22.605 21.6389 22.605H1.47221C0.968042 22.605 0.555542 22.1925 0.555542 21.6883V1.52165C0.555542 1.01748 0.968042 0.60498 1.47221 0.60498ZM3.80969 19.3508H7.06386V8.85498H3.80969V19.3508ZM5.45969 7.43416C4.40553 7.43416 3.58053 6.60916 3.58053 5.555C3.58053 4.50083 4.40553 3.67583 5.45969 3.67583C6.51386 3.67583 7.33886 4.50083 7.33886 5.555C7.33886 6.56333 6.51386 7.43416 5.45969 7.43416ZM16.0472 19.3508H19.2556V13.5758C19.2556 10.7342 18.6597 8.58001 15.3597 8.58001C13.8014 8.58001 12.7014 9.45084 12.2889 10.2758H12.2431V8.85501H9.12641V19.3508H12.3806V14.1717C12.3806 12.7967 12.6556 11.4675 14.3514 11.4675C16.0472 11.4675 16.0472 13.0258 16.0472 14.2633V19.3508Z" fill="#7D818D"/>
</svg>
