<svg width="21" height="19" viewBox="0 0 21 19" fill="none" xmlns="http://www.w3.org/2000/svg">
<path fill-rule="evenodd" clip-rule="evenodd" d="M20.7778 2.17573C19.9986 2.55373 19.1762 2.78999 18.3104 2.93174C19.1762 2.36473 19.8688 1.46696 20.1718 0.380194C19.3493 0.899954 18.4403 1.27796 17.4447 1.51422C16.6655 0.616449 15.54 0.0494385 14.328 0.0494385C11.9905 0.0494385 10.0859 2.12848 10.0859 4.68002C10.0859 5.05803 10.1292 5.38879 10.2157 5.71954C6.70949 5.53054 3.54954 3.68775 1.42847 0.852703C1.08218 1.56147 0.865741 2.31748 0.865741 3.168C0.865741 4.77452 1.60162 6.19205 2.77037 7.04257C2.07778 6.99531 1.42847 6.80631 0.822454 6.47556V6.52281C0.822454 8.79085 2.29421 10.6809 4.24213 11.1061C3.89583 11.2006 3.50625 11.2479 3.11667 11.2479C2.85694 11.2479 2.55394 11.2006 2.29421 11.1534C2.85694 12.9962 4.41528 14.3664 6.27662 14.3664C4.80486 15.595 2.98681 16.351 0.995602 16.351C0.649306 16.351 0.303009 16.351 0 16.3037C1.90463 17.6268 4.11227 18.3828 6.53634 18.3828C14.3713 18.3828 18.6567 11.2951 18.6567 5.15253C18.6567 4.96353 18.6567 4.72727 18.6567 4.53827C19.4792 3.92401 20.215 3.12074 20.7778 2.17573Z" fill="#7D818D"/>
</svg>
