<svg width="23" height="23" viewBox="0 0 23 23" fill="none" xmlns="http://www.w3.org/2000/svg">
<path d="M21.1944 0.60498H1.02775C0.521489 0.60498 0.111084 1.01539 0.111084 1.52165V21.6883C0.111084 22.1946 0.521489 22.605 1.02775 22.605H11.862V14.0854H8.99496V10.7652H11.862V8.31661C11.862 5.47505 13.5975 3.92777 16.1324 3.92777C17.3466 3.92777 18.3902 4.01817 18.6943 4.05858V7.02817L16.9362 7.02897C15.5576 7.02897 15.2907 7.68406 15.2907 8.64537V10.7652H18.5785L18.1504 14.0854H15.2907V22.605H21.1944C21.7007 22.605 22.1111 22.1946 22.1111 21.6883V1.52165C22.1111 1.01539 21.7007 0.60498 21.1944 0.60498Z" fill="#7D818D"/>
</svg>
