<svg xmlns="http://www.w3.org/2000/svg" version="1.1" xmlns:xlink="http://www.w3.org/1999/xlink" width="512" height="512" x="0" y="0" viewBox="0 0 64 64" style="enable-background:new 0 0 512 512" xml:space="preserve" class=""><g><path d="M40 8.3c-.6-.4-1.4-.3-2 0L16.5 21H10c-3.3 0-6 2.7-6 6v10c0 3.3 2.7 6 6 6h6.5L38 55.7c.3.2.7.3 1 .3s.7-.1 1-.3c.6-.4 1-1 1-1.7V10c0-.7-.4-1.4-1-1.7zM8 37V27c0-1.1.9-2 2-2h5v14h-5c-1.1 0-2-.9-2-2zm29 13.5L19 39.9V24.1l18-10.6zM54.8 32l4.9 5-2.8 2.8-4.9-5-4.9 5-2.9-2.8 4.9-5-4.9-5 2.8-2.8 4.9 5 4.9-5 2.8 2.8z" fill="#ffffff" opacity="1" data-original="#000000"></path></g></svg>