<svg width="128" height="112" viewBox="0 0 128 112" fill="none" xmlns="http://www.w3.org/2000/svg">
<path fill-rule="evenodd" clip-rule="evenodd" d="M1.56409 69.5935C11.1004 92.0391 33.094 108.145 59.227 109.058C95.1008 110.311 125.19 82.458 126.434 46.8473C126.922 32.8782 122.898 19.7903 115.662 8.96625L109.941 12.0066C116.669 21.8505 120.426 33.8257 119.979 46.6219C118.859 78.6936 91.7595 103.778 59.4508 102.65C35.7002 101.821 15.7459 87.0568 7.28613 66.553L1.56409 69.5935Z" fill="#68D585"/>
<path fill-rule="evenodd" clip-rule="evenodd" d="M20.1472 71.8217C28.6684 84.7011 43.1619 93.4239 59.8777 94.0076C87.21 94.9621 110.133 73.7944 111.079 46.7282C111.724 28.2364 101.944 11.7754 86.9663 2.89746L82.3713 7.63719C96.1279 15.1617 105.221 29.8904 104.641 46.5034C103.819 70.0488 83.8772 88.463 60.1003 87.6326C45.0243 87.1062 32.0263 78.9693 24.7417 67.0825L20.1472 71.8217Z" fill="#161C2D"/>
</svg>
