<svg width="25" height="79" viewBox="0 0 25 79" fill="none" xmlns="http://www.w3.org/2000/svg">
<mask id="mask0_2_849" style="mask-type:luminance" maskUnits="userSpaceOnUse" x="14" y="1" width="11" height="78">
<path fill-rule="evenodd" clip-rule="evenodd" d="M14.0918 1.73755H24.2078V78.354H14.0918V1.73755Z" fill="white"/>
</mask>
<g mask="url(#mask0_2_849)">
<path fill-rule="evenodd" clip-rule="evenodd" d="M14.0918 77.0295C14.0918 73.3478 16.2981 71.5011 18.2421 69.8701C20.0352 68.3708 21.4495 67.1874 21.4495 64.7088C21.4495 62.2285 20.0352 61.0452 18.2421 59.5425C16.2981 57.9131 14.0918 56.0665 14.0918 52.3831C14.0918 48.703 16.2981 46.8564 18.2421 45.227C20.0352 43.7277 21.4495 42.5427 21.4495 40.0657C21.4495 37.5854 20.0352 36.4004 18.2421 34.8994C16.2981 33.2684 14.0918 31.4218 14.0918 27.7368C14.0918 24.0518 16.2964 22.2018 18.2421 20.5708C20.0335 19.0698 21.4495 17.8815 21.4495 15.3996C21.4495 12.9177 20.0335 11.731 18.2421 10.23C16.2964 8.59738 14.0918 6.74911 14.0918 3.06244C14.0918 2.33169 14.7089 1.73755 15.4718 1.73755C16.2329 1.73755 16.8501 2.33169 16.8501 3.06244C16.8501 5.54601 18.2661 6.73265 20.0575 8.23365C22.0032 9.86467 24.2078 11.7129 24.2078 15.3996C24.2078 19.0846 22.0032 20.9345 20.0558 22.5656C18.2661 24.0682 16.8501 25.2549 16.8501 27.7368C16.8501 30.217 18.2661 31.4037 20.0558 32.903C22.0032 34.5341 24.2078 36.3807 24.2078 40.0657C24.2078 43.7474 22.0015 45.5941 20.0558 47.2234C18.2661 48.7228 16.8501 49.9078 16.8501 52.3831C16.8501 54.8634 18.2661 56.0468 20.0558 57.5478C22.0015 59.1771 24.2078 61.0254 24.2078 64.7088C24.2078 68.3905 22.0015 70.2388 20.0558 71.8682C18.2661 73.3675 16.8501 74.5525 16.8501 77.0295C16.8501 77.7602 16.2329 78.3544 15.4718 78.3544C14.7089 78.3544 14.0918 77.7602 14.0918 77.0295Z" fill="#F64B4B"/>
</g>
<path fill-rule="evenodd" clip-rule="evenodd" d="M0 75.6685C0 71.9667 2.18136 70.1108 4.10339 68.4733C5.87458 66.9664 7.27458 65.7772 7.27458 63.2862C7.27458 60.7935 5.87458 59.6026 4.10339 58.094C2.18136 56.4565 0 54.6007 0 50.8989C0 47.1987 2.18136 45.3445 4.10339 43.7053C5.87458 42.2001 7.27458 41.0092 7.27458 38.5198C7.27458 36.0272 5.87458 34.8346 4.10339 33.3261C2.18136 31.6886 0 29.831 0 26.1293C0 22.4241 2.17966 20.5666 4.1017 18.9275C5.87458 17.4173 7.27458 16.2247 7.27458 13.7304C7.27458 11.2344 5.87458 10.0435 4.10339 8.53332C2.17966 6.89414 0 5.03497 0 1.33152C0 0.595463 0.61017 0 1.36271 0C2.11695 0 2.72712 0.595463 2.72712 1.33152C2.72712 3.82585 4.12712 5.01843 5.8983 6.52859C7.82203 8.16777 10 10.0253 10 13.7304C10 17.4338 7.82203 19.293 5.89661 20.9322C4.12712 22.4423 2.72712 23.6349 2.72712 26.1293C2.72712 28.6219 4.12712 29.8129 5.89661 31.3214C7.82203 32.9589 10 34.8164 10 38.5198C10 42.22 7.82034 44.0742 5.89661 45.7134C4.12542 47.2202 2.72712 48.4095 2.72712 50.8989C2.72712 53.3899 4.12542 54.5808 5.89661 56.0893C7.82034 57.7268 10 59.5844 10 63.2862C10 66.9863 7.82034 68.8438 5.89661 70.4797C4.12542 71.9865 2.72712 73.1775 2.72712 75.6685C2.72712 76.4029 2.11695 77 1.36271 77C0.61017 77 0 76.4029 0 75.6685Z" fill="#F64B4B"/>
</svg>
