<svg width="80" height="80" viewBox="0 0 80 80" fill="none" xmlns="http://www.w3.org/2000/svg">
<rect width="80" height="80" rx="20" fill="#1D1D1D"/>
<path d="M49.6596 28.6584C48.1056 26.8517 47.2914 24.517 47.3558 22.14L41.5481 22V22.5817V46.8558C39.9845 53.8237 29.9001 52.0055 30.9096 44.916C31.4729 41.6776 34.9519 39.6852 38.044 40.8115V34.8858C31.3126 33.7139 24.9335 39.0714 25.0005 45.8971C25.5889 60.6999 46.8205 60.7021 47.4096 45.8971C47.2611 45.3674 47.344 35.5026 47.323 34.6707C49.9639 36.3138 53.0365 37.135 56.1482 37.0304V30.9102C53.2715 30.9102 51.0761 30.1454 49.6596 28.6584Z" fill="white"/>
</svg>
