<svg width="42" height="50" viewBox="0 0 42 50" fill="none" xmlns="http://www.w3.org/2000/svg">
<path d="M25.3383 22.5138H7.15924C5.93014 22.5125 4.75174 22.0237 3.88264 21.1546C3.01353 20.2854 2.52471 19.1071 2.52344 17.878V4.6364C2.52471 3.40725 3.01351 2.22879 3.8826 1.35959C4.75169 0.490387 5.93008 0.00143174 7.15924 0H25.3383C26.5675 0.00143144 27.7459 0.490368 28.6151 1.35955C29.4843 2.22874 29.9733 3.40719 29.9747 4.6364V17.878C29.9733 19.1071 29.4843 20.2855 28.6151 21.1546C27.7459 22.0237 26.5674 22.5125 25.3383 22.5138ZM7.15924 1.92307C6.43992 1.92387 5.7503 2.21001 5.24172 2.7187C4.73314 3.2274 4.44715 3.91708 4.44651 4.6364V17.878C4.4473 18.5972 4.73336 19.2867 5.24193 19.7953C5.75049 20.3038 6.44002 20.5899 7.15924 20.5907H25.3383C26.0576 20.5899 26.7471 20.3039 27.2558 19.7953C27.7645 19.2868 28.0507 18.5972 28.0516 17.878V4.6364C28.0508 3.91703 27.7647 3.22734 27.256 2.71867C26.7473 2.20999 26.0577 1.92387 25.3383 1.92307H7.15924Z" fill="#E38282"/>
<path d="M37.3147 21.5961C36.921 21.5949 36.5353 21.4851 36.1999 21.2788L28.5137 16.5913C28.3729 16.5055 28.2566 16.3849 28.1759 16.2411C28.0951 16.0974 28.0527 15.9353 28.0527 15.7704V6.7446C28.0527 6.57973 28.0951 6.41763 28.1759 6.27387C28.2566 6.13011 28.3729 6.00952 28.5137 5.92369L36.1999 1.2362C36.5247 1.03811 36.8963 0.930079 37.2766 0.923202C37.6569 0.916325 38.0322 1.01085 38.3639 1.19707C38.6956 1.38328 38.9717 1.65447 39.1638 1.98274C39.3559 2.31102 39.4572 2.68454 39.4572 3.06492V19.4501C39.4557 20.0182 39.2297 20.5627 38.8283 20.9647C38.4269 21.3668 37.8828 21.5937 37.3147 21.5961ZM29.9758 15.2295L37.2017 19.637C37.2349 19.6571 37.2728 19.6681 37.3116 19.6688C37.3504 19.6694 37.3887 19.6597 37.4226 19.6407C37.4564 19.6217 37.4845 19.594 37.5041 19.5605C37.5237 19.527 37.5341 19.4889 37.5341 19.4501V3.06492C37.5341 3.02611 37.5237 2.988 37.5041 2.95451C37.4845 2.92101 37.4564 2.89333 37.4226 2.87431C37.3887 2.85528 37.3504 2.8456 37.3116 2.84625C37.2728 2.84691 37.2349 2.85787 37.2017 2.87802L29.9758 7.28426V15.2295Z" fill="#E38282"/>
<path d="M36.7751 50H5.20551C3.82541 49.9985 2.5023 49.4495 1.52642 48.4736C0.550538 47.4977 0.00159053 46.1746 0 44.7945V31.0097C0.00143177 29.6296 0.550328 28.3064 1.52624 27.3304C2.50215 26.3545 3.82537 25.8056 5.20551 25.8042H36.7751C38.1553 25.8056 39.4785 26.3545 40.4544 27.3304C41.4303 28.3064 41.9792 29.6296 41.9807 31.0097V44.7945C41.9791 46.1746 41.4301 47.4977 40.4542 48.4736C39.4784 49.4495 38.1552 49.9985 36.7751 50ZM5.20551 27.7273C4.33525 27.7282 3.5009 28.0744 2.88553 28.6897C2.27016 29.3051 1.92403 30.1394 1.92307 31.0097V44.7945C1.92403 45.6648 2.27016 46.4991 2.88553 47.1145C3.5009 47.7299 4.33525 48.076 5.20551 48.077H36.7751C37.6454 48.076 38.4798 47.7299 39.0951 47.1145C39.7105 46.4991 40.0566 45.6648 40.0576 44.7945V31.0097C40.0566 30.1394 39.7105 29.3051 39.0951 28.6897C38.4798 28.0744 37.6454 27.7282 36.7751 27.7273H5.20551Z" fill="#E38282"/>
<path d="M23.3882 38.8637H18.7831C18.1905 38.8637 17.7266 38.4184 17.7266 37.8505V34.5843C17.7266 34.0158 18.1905 33.571 18.7831 33.571H23.3882C23.6432 33.571 23.8878 33.6723 24.0681 33.8527C24.2484 34.033 24.3497 34.2776 24.3497 34.5326C24.3497 34.7876 24.2484 35.0322 24.0681 35.2125C23.8878 35.3928 23.6432 35.4941 23.3882 35.4941H19.6496V36.9406H23.3882C23.6432 36.9406 23.8878 37.0419 24.0681 37.2223C24.2484 37.4026 24.3497 37.6471 24.3497 37.9022C24.3497 38.1572 24.2484 38.4017 24.0681 38.5821C23.8878 38.7624 23.6432 38.8637 23.3882 38.8637Z" fill="#E38282"/>
<path d="M23.3618 42.2332H18.7686C18.4962 42.2365 18.2336 42.1318 18.0382 41.9419C17.8429 41.752 17.7308 41.4924 17.7266 41.22V37.9537C17.7307 37.6813 17.8427 37.4216 18.0381 37.2316C18.2334 37.0417 18.4962 36.937 18.7686 36.9405H23.3618C23.6168 36.9405 23.8613 37.0418 24.0417 37.2221C24.222 37.4025 24.3233 37.647 24.3233 37.9021C24.3233 38.1571 24.222 38.4016 24.0417 38.582C23.8613 38.7623 23.6168 38.8636 23.3618 38.8636H19.6496V40.3101H23.3618C23.6168 40.3101 23.8613 40.4114 24.0417 40.5917C24.222 40.772 24.3233 41.0166 24.3233 41.2716C24.3233 41.5266 24.222 41.7712 24.0417 41.9515C23.8613 42.1319 23.6168 42.2332 23.3618 42.2332Z" fill="#E38282"/>
<path d="M29.1873 42.2334C28.2336 42.2334 27.3208 41.7286 26.6837 40.8512C26.1056 40.0519 25.7871 39.0057 25.7871 37.9065C25.7871 36.8073 26.1056 35.7593 26.6837 34.9618C27.3208 34.0814 28.2336 33.5796 29.1873 33.5796C30.5263 33.5796 31.7066 34.5291 32.2673 36.0585C32.3393 36.2938 32.3185 36.5476 32.209 36.768C32.0996 36.9883 31.9099 37.1583 31.6789 37.243C31.4479 37.3277 31.1933 37.3206 30.9674 37.2232C30.7415 37.1259 30.5614 36.9457 30.4644 36.7196C30.1927 35.9798 29.6927 35.5015 29.1897 35.5015C28.4908 35.5015 27.7126 36.49 27.7126 37.9095C27.7126 39.329 28.4908 40.3176 29.1897 40.3176C29.6927 40.3176 30.1927 39.8368 30.4644 39.0988C30.5027 38.9739 30.566 38.8581 30.6505 38.7584C30.735 38.6588 30.839 38.5774 30.956 38.5193C31.073 38.4612 31.2006 38.4275 31.3311 38.4204C31.4615 38.4132 31.5921 38.4327 31.7148 38.4777C31.8374 38.5227 31.9496 38.5922 32.0445 38.682C32.1395 38.7718 32.2151 38.88 32.2668 38.9999C32.3185 39.1199 32.3452 39.2492 32.3453 39.3799C32.3454 39.5105 32.3188 39.6398 32.2673 39.7599C31.7066 41.2863 30.5263 42.2334 29.1873 42.2334Z" fill="#E38282"/>
<path d="M10.6129 42.2265C10.3579 42.2265 10.1133 42.1252 9.933 41.9449C9.75267 41.7646 9.65137 41.52 9.65137 41.265V34.5384C9.65137 34.2834 9.75267 34.0389 9.933 33.8585C10.1133 33.6782 10.3579 33.5769 10.6129 33.5769C10.8679 33.5769 11.1125 33.6782 11.2928 33.8585C11.4731 34.0389 11.5744 34.2834 11.5744 34.5384V41.265C11.5744 41.52 11.4731 41.7646 11.2928 41.9449C11.1125 42.1252 10.8679 42.2265 10.6129 42.2265Z" fill="#E38282"/>
<path d="M13.5318 39.042H10.6129C10.3579 39.042 10.1133 38.9407 9.933 38.7604C9.75267 38.5801 9.65137 38.3355 9.65137 38.0805V34.5384C9.65137 34.2834 9.75267 34.0389 9.933 33.8585C10.1133 33.6782 10.3579 33.5769 10.6129 33.5769H13.5318C14.2565 33.5769 14.9515 33.8648 15.464 34.3773C15.9764 34.8897 16.2643 35.5847 16.2643 36.3095C16.2643 37.0342 15.9764 37.7292 15.464 38.2417C14.9515 38.7541 14.2565 39.042 13.5318 39.042ZM11.5744 37.119H13.5318C13.7465 37.119 13.9524 37.0337 14.1042 36.8819C14.256 36.7301 14.3413 36.5242 14.3413 36.3095C14.3413 36.0948 14.256 35.8889 14.1042 35.7371C13.9524 35.5853 13.7465 35.5 13.5318 35.5H11.5744V37.119Z" fill="#E38282"/>
<path d="M15.3057 42.2265C15.1549 42.2266 15.0061 42.1913 14.8714 42.1233C14.7367 42.0554 14.62 41.9567 14.5305 41.8352L12.1867 38.6501C12.1118 38.5485 12.0576 38.433 12.0272 38.3104C11.9968 38.1877 11.9909 38.0603 12.0098 37.9354C12.0287 37.8105 12.072 37.6905 12.1373 37.5823C12.2025 37.4741 12.2885 37.3799 12.3902 37.3049C12.4918 37.2299 12.6073 37.1757 12.7299 37.1454C12.8526 37.115 12.98 37.1091 13.1049 37.128C13.2298 37.1469 13.3498 37.1902 13.458 37.2555C13.5662 37.3207 13.6604 37.4066 13.7354 37.5083L16.0792 40.6934C16.1844 40.8366 16.248 41.0061 16.2628 41.1832C16.2775 41.3603 16.243 41.538 16.1628 41.6966C16.0827 41.8553 15.9602 41.9886 15.8089 42.0818C15.6576 42.175 15.4834 42.2244 15.3057 42.2247V42.2265Z" fill="#E38282"/>
<path d="M4.46251 37.3797C4.2075 37.3797 3.96293 37.2784 3.7826 37.0981C3.60228 36.9178 3.50098 36.6732 3.50098 36.4182V30.2704C3.50098 30.0154 3.60228 29.7708 3.7826 29.5905C3.96293 29.4101 4.2075 29.3088 4.46251 29.3088H10.6103C10.8653 29.3088 11.1099 29.4101 11.2902 29.5905C11.4706 29.7708 11.5719 30.0154 11.5719 30.2704C11.5719 30.5254 11.4706 30.77 11.2902 30.9503C11.1099 31.1306 10.8653 31.2319 10.6103 31.2319H5.42405V36.4182C5.42405 36.6732 5.32274 36.9178 5.14242 37.0981C4.9621 37.2784 4.71753 37.3797 4.46251 37.3797Z" fill="#E38282"/>
<path d="M37.5141 46.495H31.3639C31.1089 46.495 30.8643 46.3937 30.684 46.2133C30.5037 46.033 30.4023 45.7884 30.4023 45.5334C30.4023 45.2784 30.5037 45.0338 30.684 44.8535C30.8643 44.6732 31.1089 44.5719 31.3639 44.5719H36.5526V39.3856C36.5526 39.1306 36.6539 38.886 36.8342 38.7057C37.0145 38.5254 37.2591 38.4241 37.5141 38.4241C37.7691 38.4241 38.0137 38.5254 38.194 38.7057C38.3743 38.886 38.4756 39.1306 38.4756 39.3856V45.5334C38.4756 45.7884 38.3743 46.033 38.194 46.2133C38.0137 46.3937 37.7691 46.495 37.5141 46.495Z" fill="#E38282"/>
</svg>
