<svg width="54" height="50" viewBox="0 0 54 50" fill="none" xmlns="http://www.w3.org/2000/svg">
<path d="M49.6847 4.55918H44.0647C42.5653 1.84377 39.6737 0 36.3586 0H33.4796C30.1646 0 27.2729 1.84377 25.7736 4.55918H3.36758C1.51064 4.55918 0 6.06982 0 7.92675V33.9423C0 35.7992 1.51064 37.3098 3.36758 37.3098H20.05V44.301H19.5837C19.1545 44.301 18.8066 44.6489 18.8066 45.0782C18.8066 45.5074 19.1545 45.8553 19.5837 45.8553H37.5096C37.9382 45.8553 38.2867 46.2039 38.2867 46.6324V48.4457H14.7655V46.6324C14.7655 46.2039 15.1141 45.8553 15.5427 45.8553H15.9571C16.3864 45.8553 16.7343 45.5074 16.7343 45.0782C16.7343 44.6489 16.3864 44.301 15.9571 44.301H15.5427C14.2572 44.301 13.2113 45.3469 13.2113 46.6324V48.7048C13.2113 49.419 13.7922 50 14.5065 50H38.5458C39.26 50 39.841 49.419 39.841 48.7048V46.6324C39.841 45.3469 38.7951 44.301 37.5096 44.301H33.0022V37.3098H49.6847C51.5416 37.3098 53.0523 35.7992 53.0523 33.9423V7.92675C53.0523 6.06982 51.5416 4.55918 49.6847 4.55918ZM36.8154 22.3309L34.9388 25.0218L33.023 22.327V21.8823C33.2229 21.9023 33.4256 21.9128 33.6308 21.9128H36.2074C36.4126 21.9128 36.6153 21.9023 36.8153 21.8823L36.8154 22.3309ZM36.2076 20.3585H33.6309C31.1413 20.3585 29.1159 18.3331 29.1159 15.8435V10.6025H31.6823C33.4063 10.6025 35.0584 10.0294 36.4045 8.97599C37.6449 9.94678 39.1455 10.5084 40.7227 10.5907V15.8435C40.7226 18.3331 38.6972 20.3585 36.2076 20.3585ZM25.9193 10.6025H27.5616V14.8061H25.9193C25.1306 14.8061 24.4889 14.1645 24.4889 13.3757V12.0329C24.4889 11.2442 25.1305 10.6025 25.9193 10.6025ZM40.7226 9.03329C39.3098 8.94055 37.9781 8.36516 36.9366 7.38649C36.6376 7.10538 36.1715 7.10527 35.8723 7.38649C34.7319 8.458 33.2439 9.04811 31.6823 9.04811H29.1159V8.79704C29.1159 6.39073 31.0735 4.43318 33.4797 4.43318H36.3587C38.765 4.43318 40.7226 6.39083 40.7226 8.79704V9.03329ZM42.2769 10.6025H43.9191C44.7078 10.6025 45.3495 11.2442 45.3495 12.033V13.3758C45.3495 14.1645 44.7079 14.8062 43.9191 14.8062H42.2769V10.6025ZM33.4796 1.55427H36.3586C40.3524 1.55427 43.6014 4.80341 43.6014 8.79714V9.04821H42.2767V8.79714C42.2767 5.53391 39.6219 2.87902 36.3586 2.87902H33.4796C30.2164 2.87902 27.5615 5.53391 27.5615 8.79714V9.04821H26.2368V8.79714C26.2368 4.80341 29.4859 1.55427 33.4796 1.55427ZM11.6006 8.36257C11.6006 9.60277 10.5917 10.6117 9.3515 10.6117C8.1113 10.6117 7.10237 9.60277 7.10237 8.36257C7.10237 7.12237 8.1113 6.11344 9.3515 6.11344C10.5917 6.11344 11.6006 7.12237 11.6006 8.36257ZM17.1487 35.7556H14.045V34.8745C14.045 33.5323 13.3447 32.3088 12.2656 31.6008C12.8202 30.9398 13.1549 30.0885 13.1549 29.1602C13.1549 28.3192 12.8801 27.5415 12.4162 26.9111H17.1487V35.7556ZM7.10237 29.1601C7.10237 27.9199 8.1113 26.911 9.3515 26.911C10.5917 26.911 11.6006 27.9199 11.6006 29.1601C11.6006 30.4003 10.5917 31.4092 9.3515 31.4092C8.1113 31.4092 7.10237 30.4003 7.10237 29.1601ZM1.55427 25.3567V16.5122H6.2868C5.8229 17.1426 5.54811 17.9204 5.54811 18.7613C5.54811 19.6896 5.88279 20.541 6.43735 21.2019C5.35818 21.91 4.65803 23.1335 4.65803 24.4756V25.3567H1.55427ZM11.6006 18.7613C11.6006 20.0015 10.5917 21.0105 9.3515 21.0105C8.1113 21.0105 7.10237 20.0015 7.10237 18.7613C7.10237 17.5211 8.1113 16.5122 9.3515 16.5122C10.5917 16.5122 11.6006 17.5211 11.6006 18.7613ZM6.2123 24.4756C6.2123 23.4608 6.87669 22.5594 7.82262 22.2428C8.29087 22.4492 8.80782 22.5647 9.3515 22.5647C9.89518 22.5647 10.4121 22.4492 10.8804 22.2428C11.8263 22.5594 12.4907 23.4608 12.4907 24.4756V25.3567H6.2123V24.4756ZM17.1487 25.3567H14.045V24.4756C14.045 23.1335 13.3447 21.91 12.2656 21.2019C12.8202 20.541 13.1549 19.6896 13.1549 18.7613C13.1549 17.9204 12.8801 17.1426 12.4162 16.5122H17.1487V25.3567ZM12.4907 14.9579H6.2123V14.0769C6.2123 13.062 6.87669 12.1607 7.82262 11.844C8.29087 12.0504 8.80782 12.166 9.3515 12.166C9.89518 12.166 10.4121 12.0504 10.8804 11.844C11.8263 12.1607 12.4907 13.062 12.4907 14.0769V14.9579ZM3.36758 6.11344H6.2868C5.8229 6.74385 5.54811 7.52161 5.54811 8.36257C5.54811 9.29088 5.88279 10.1422 6.43735 10.8032C5.35818 11.5112 4.65803 12.7347 4.65803 14.0769V14.9579H1.55427V7.92675C1.55427 6.92684 2.36777 6.11344 3.36758 6.11344ZM1.55427 33.9423V26.9111H6.2868C5.8229 27.5415 5.54811 28.3192 5.54811 29.1602C5.54811 30.0885 5.88279 30.9398 6.43735 31.6008C5.35818 32.3088 4.65803 33.5323 4.65803 34.8745V35.7556H3.36758C2.36777 35.7556 1.55427 34.9421 1.55427 33.9423ZM6.2123 35.7556V34.8745C6.2123 33.8597 6.87669 32.9583 7.82262 32.6416C8.29087 32.8481 8.80782 32.9636 9.3515 32.9636C9.89518 32.9636 10.4121 32.8481 10.8804 32.6416C11.8263 32.9583 12.4907 33.8597 12.4907 34.8745V35.7556H6.2123ZM31.448 44.3009H21.6043V37.3097H31.448V44.3009ZM22.3296 35.7556V31.8387C22.3296 31.4094 21.9818 31.0616 21.5525 31.0616C21.1232 31.0616 20.7754 31.4094 20.7754 31.8387V35.7556H18.703V12.3586C18.703 11.9293 18.3552 11.5815 17.9259 11.5815C17.4966 11.5815 17.1487 11.9293 17.1487 12.3586V14.9579H14.045V14.0769C14.045 12.7347 13.3447 11.5112 12.2656 10.8032C12.8202 10.1422 13.1549 9.29088 13.1549 8.36257C13.1549 7.52161 12.8801 6.74385 12.4162 6.11344H17.1487V8.73197C17.1487 9.16126 17.4966 9.5091 17.9259 9.5091C18.3552 9.5091 18.703 9.16126 18.703 8.73197V6.11344H25.1026C24.8307 6.96 24.6826 7.86147 24.6826 8.79714V9.31762C23.6525 9.78866 22.9346 10.8283 22.9346 12.033V13.3758C22.9346 15.0216 24.2736 16.3605 25.9193 16.3605H27.5851C27.7853 18.7205 29.3407 20.6991 31.4688 21.5134V21.7981H25.7792C23.0201 21.7981 20.7755 24.0427 20.7755 26.8019V28.2121C20.7755 28.6414 21.1233 28.9892 21.5526 28.9892C21.9819 28.9892 22.3297 28.6414 22.3297 28.2121V26.8018C22.3297 24.8997 23.8771 23.3522 25.7792 23.3522L31.8449 23.3523L33.9253 26.2786C34.1589 26.6071 34.5384 26.8027 34.9413 26.8027H34.9473C35.3524 26.8007 35.7325 26.6013 35.9639 26.2692L37.9982 23.3523H44.0595C45.9615 23.3523 47.5089 24.8999 47.5089 26.8019V35.7557H22.3296V35.7556ZM51.498 33.9423C51.498 34.9421 50.6845 35.7556 49.6847 35.7556H49.063V26.8018C49.063 24.0426 46.8183 21.798 44.0593 21.798H38.3696V21.5133C40.4977 20.699 42.0531 18.7204 42.2533 16.3604H43.9191C45.5648 16.3604 46.9038 15.0215 46.9038 13.3757V12.0329C46.9038 10.8282 46.1859 9.78856 45.1559 9.31751V8.79704C45.1559 7.86127 45.0076 6.9599 44.7358 6.11334H49.6847C50.6845 6.11334 51.498 6.92684 51.498 7.92665V33.9423Z" fill="#E38282"/>
<path d="M36.4349 15.9995C35.5992 16.8355 34.2388 16.8355 33.4029 15.9995C33.0993 15.6961 32.6073 15.6961 32.3038 15.9995C32.0003 16.3031 32.0003 16.7951 32.3038 17.0986C33.0249 17.8196 33.9719 18.18 34.9189 18.18C35.8659 18.18 36.8129 17.8196 37.534 17.0986C37.8375 16.795 37.8375 16.303 37.534 15.9995C37.2305 15.6961 36.7385 15.6961 36.4349 15.9995Z" fill="#E38282"/>
<path d="M33.1265 12.7526V12.2386C33.1265 11.8093 32.7787 11.4614 32.3494 11.4614C31.9201 11.4614 31.5723 11.8093 31.5723 12.2386V12.7526C31.5723 13.1819 31.9201 13.5297 32.3494 13.5297C32.7787 13.5297 33.1265 13.1818 33.1265 12.7526Z" fill="#E38282"/>
<path d="M37.49 11.4614C37.0607 11.4614 36.7129 11.8093 36.7129 12.2386V12.7526C36.7129 13.1819 37.0607 13.5297 37.49 13.5297C37.9193 13.5297 38.2672 13.1819 38.2672 12.7526V12.2386C38.2672 11.8093 37.9192 11.4614 37.49 11.4614Z" fill="#E38282"/>
</svg>
