<svg width="80" height="80" viewBox="0 0 80 80" fill="none" xmlns="http://www.w3.org/2000/svg">
<rect width="80" height="80" rx="20" fill="#FF2F2F"/>
<path d="M55.9517 33.1372C56.6548 35.5981 56.6548 40.8716 56.6548 40.8716C56.6548 40.8716 56.6548 46.0864 55.9517 48.606C55.6001 50.0122 54.4868 51.0669 53.1392 51.4185C50.6196 52.063 40.6587 52.063 40.6587 52.063C40.6587 52.063 30.6392 52.063 28.1196 51.4185C26.772 51.0669 25.6587 50.0122 25.3071 48.606C24.604 46.0864 24.604 40.8716 24.604 40.8716C24.604 40.8716 24.604 35.5981 25.3071 33.1372C25.6587 31.731 26.772 30.6177 28.1196 30.2661C30.6392 29.563 40.6587 29.563 40.6587 29.563C40.6587 29.563 50.6196 29.563 53.1392 30.2661C54.4868 30.6177 55.6001 31.731 55.9517 33.1372ZM37.3774 45.6177L45.6978 40.8716L37.3774 36.1255V45.6177Z" fill="white"/>
</svg>
