<svg width="22" height="22" viewBox="0 0 22 22" fill="none" xmlns="http://www.w3.org/2000/svg">
<path d="M9.62988 13.0606L13.208 10.9998L9.62988 8.93896V13.0606Z" fill="#7D818D"/>
<path d="M20.4133 0H1.58665C0.710327 0 0 0.710327 0 1.58665V20.4133C0 21.2897 0.710327 22 1.58665 22H20.4133C21.2897 22 22 21.2897 22 20.4133V1.58665C22 0.710327 21.2897 0 20.4133 0ZM17.8733 11.0112C17.8733 11.0112 17.8733 13.2421 17.5903 14.3178C17.4317 14.9066 16.9675 15.3709 16.3786 15.5293C15.3029 15.8125 11 15.8125 11 15.8125C11 15.8125 6.70833 15.8125 5.62135 15.5181C5.03255 15.3596 4.56828 14.8952 4.40967 14.3064C4.12651 13.2421 4.12651 11 4.12651 11C4.12651 11 4.12651 8.76932 4.40967 7.69359C4.56812 7.10478 5.04379 6.6291 5.62135 6.47066C6.69708 6.1875 11 6.1875 11 6.1875C11 6.1875 15.3029 6.1875 16.3786 6.4819C16.9675 6.64035 17.4317 7.10478 17.5903 7.69359C17.8847 8.76932 17.8733 11.0112 17.8733 11.0112Z" fill="#7D818D"/>
</svg>
