<svg width="169" height="50" viewBox="0 0 169 50" fill="none" xmlns="http://www.w3.org/2000/svg">
<path d="M167.63 44.0971C167.63 44.7264 167.506 45.3495 167.265 45.9309C167.024 46.5122 166.671 47.0403 166.226 47.4851C165.78 47.9298 165.252 48.2825 164.67 48.5228C164.088 48.7632 163.465 48.8866 162.835 48.8859H5.91444C4.64259 48.8873 3.42228 48.3835 2.52189 47.4855C1.6215 46.5874 1.11476 45.3686 1.1131 44.0971V5.90786C1.11475 4.63577 1.6213 3.41633 2.52151 2.5173C3.42172 1.61826 4.64201 1.11312 5.91444 1.11279H162.834C163.464 1.11279 164.088 1.23683 164.669 1.47782C165.251 1.71881 165.78 2.07203 166.225 2.51731C166.67 2.96259 167.024 3.49121 167.265 4.07296C167.505 4.65472 167.629 5.27822 167.629 5.90786L167.63 44.0971Z" fill="white"/>
<path d="M162.835 50H5.91444C4.34767 49.9997 2.84501 49.378 1.7362 48.2713C0.627384 47.1647 0.00298114 45.6635 0 44.0971L0 5.90912C0.00231782 4.34199 0.626309 2.83976 1.73509 1.73198C2.84387 0.624195 4.34689 0.00132272 5.91444 0L162.834 0C164.401 0.00198273 165.904 0.625067 167.013 1.73271C168.121 2.84034 168.746 4.34219 168.749 5.90912V44.0971C168.751 47.353 166.093 50 162.835 50Z" fill="#A6A6A6"/>
<path d="M167.63 44.0971C167.63 44.7264 167.506 45.3495 167.265 45.9309C167.024 46.5122 166.671 47.0403 166.226 47.4851C165.78 47.9298 165.252 48.2825 164.67 48.5228C164.088 48.7632 163.465 48.8866 162.835 48.8859H5.91444C4.64259 48.8873 3.42228 48.3835 2.52189 47.4855C1.6215 46.5874 1.11476 45.3686 1.1131 44.0971V5.90786C1.11475 4.63577 1.6213 3.41633 2.52151 2.5173C3.42172 1.61826 4.64201 1.11312 5.91444 1.11279H162.834C163.464 1.11279 164.088 1.23683 164.669 1.47782C165.251 1.71881 165.78 2.07203 166.225 2.51731C166.67 2.96259 167.024 3.49121 167.265 4.07296C167.505 4.65472 167.629 5.27822 167.629 5.90786L167.63 44.0971Z" fill="black"/>
<path d="M37.6804 24.7369C37.6441 20.707 40.9809 18.7465 41.1335 18.6552C39.2437 15.9007 36.3146 15.5243 35.2853 15.4943C32.8252 15.2355 30.4389 16.966 29.1858 16.966C27.9076 16.966 25.9778 15.5193 23.8979 15.5618C21.2215 15.6031 18.7176 17.1523 17.3444 19.5579C14.5104 24.463 16.624 31.6713 19.3392 35.6361C20.6974 37.5791 22.2845 39.746 24.3619 39.6697C26.3943 39.5872 27.1534 38.3756 29.606 38.3756C32.0361 38.3756 32.7489 39.6697 34.8676 39.6209C37.0488 39.5872 38.422 37.6704 39.7327 35.7111C41.3023 33.4868 41.9327 31.2937 41.9577 31.1811C41.9076 31.1636 37.7229 29.5657 37.6804 24.7369ZM33.6782 12.8861C34.7713 11.5195 35.5192 9.66021 35.3116 7.77344C33.7295 7.84346 31.7509 8.86749 30.6115 10.2041C29.6035 11.3819 28.703 13.3125 28.9356 15.128C30.7128 15.2605 32.5376 14.2315 33.6782 12.8861Z" fill="white"/>
<path d="M162.835 0H78.7838L111.705 50H162.835C164.402 49.9987 165.905 49.3761 167.014 48.2689C168.123 47.1617 168.747 45.6601 168.75 44.0934V5.90912C168.747 4.34209 168.123 2.84005 167.014 1.73234C165.906 0.624631 164.403 0.00165285 162.835 0Z" fill="url(#paint0_linear_3_620)"/>
<path d="M67.1175 39.3909H64.2772L62.7214 34.5033H57.3135L55.8314 39.3909H53.0662L58.4253 22.7513H61.7346L67.1175 39.3909ZM62.2524 32.4527L60.8454 28.1078C60.6965 27.6639 60.4164 26.6186 60.0062 24.9732H59.9561C59.791 25.6809 59.5271 26.7262 59.1657 28.1078L57.7825 32.4527H62.2524ZM80.8724 33.2442C80.8724 35.2848 80.3184 36.8977 79.209 38.0818C78.216 39.1358 76.9816 39.6622 75.5095 39.6622C73.9199 39.6622 72.7768 39.0958 72.0827 37.9605V44.256H69.4162V31.3362C69.4162 30.0546 69.3825 28.7405 69.3174 27.3926H71.6624L71.8113 29.2944H71.8613C72.7505 27.8615 74.1 27.145 75.911 27.145C77.3268 27.145 78.5086 27.7039 79.4542 28.823C80.3984 29.9446 80.8724 31.4175 80.8724 33.2442ZM78.156 33.3417C78.156 32.1739 77.8933 31.2111 77.3655 30.4522C76.789 29.6632 76.0148 29.2681 75.0443 29.2681C74.3864 29.2681 73.7886 29.4882 73.2546 29.922C72.7193 30.3597 72.3691 30.9311 72.2052 31.6388C72.1321 31.9034 72.0905 32.1758 72.0814 32.4502V34.452C72.0814 35.3235 72.3491 36.06 72.8844 36.6626C73.4196 37.2628 74.115 37.5641 74.9705 37.5641C75.9748 37.5641 76.7564 37.1753 77.3155 36.4038C77.8758 35.6299 78.156 34.6096 78.156 33.3417ZM94.6761 33.2442C94.6761 35.2848 94.1221 36.8977 93.0127 38.0818C92.0184 39.1358 90.7853 39.6622 89.312 39.6622C87.7224 39.6622 86.5792 39.0958 85.8851 37.9605V44.256H83.2187V31.3362C83.2187 30.0546 83.1849 28.7405 83.1199 27.3926H85.4649L85.6137 29.2944H85.6638C86.5517 27.8615 87.9012 27.145 89.7134 27.145C91.128 27.145 92.3098 27.7039 93.2579 28.823C94.2009 29.9446 94.6761 31.4175 94.6761 33.2442ZM91.9584 33.3417C91.9584 32.1739 91.6945 31.2111 91.1667 30.4522C90.5902 29.6632 89.8185 29.2681 88.848 29.2681C88.1901 29.2681 87.5923 29.4882 87.0558 29.922C86.5205 30.3597 86.1715 30.9311 86.0077 31.6388C85.9264 31.9689 85.8826 32.2377 85.8826 32.4502V34.452C85.8826 35.3235 86.1515 36.06 86.6843 36.6626C87.2196 37.2616 87.915 37.5641 88.7729 37.5641C89.7785 37.5641 90.5602 37.1753 91.118 36.4038C91.6783 35.6299 91.9584 34.6096 91.9584 33.3417ZM110.109 34.7234C110.109 36.14 109.614 37.2916 108.63 38.1806C107.547 39.1508 106.035 39.6372 104.096 39.6372C102.305 39.6372 100.869 39.2921 99.7864 38.6007L100.403 36.3788C101.572 37.0715 102.857 37.4166 104.255 37.4166C105.261 37.4166 106.042 37.189 106.6 36.7377C107.159 36.285 107.442 35.6799 107.442 34.9247C107.442 34.2482 107.208 33.6818 106.749 33.2205C106.287 32.7603 105.524 32.3315 104.453 31.9376C101.539 30.851 100.08 29.2619 100.08 27.1713C100.08 25.8059 100.596 24.6881 101.624 23.8141C102.652 22.9414 104.015 22.505 105.711 22.505C107.225 22.505 108.487 22.7688 109.489 23.2952L108.82 25.4683C107.877 24.9582 106.813 24.7031 105.622 24.7031C104.682 24.7031 103.944 24.9344 103.416 25.3945C102.972 25.8059 102.747 26.3073 102.747 26.9025C102.747 27.5589 103.003 28.104 103.513 28.5317C103.956 28.9255 104.764 29.3544 105.932 29.8145C107.365 30.3922 108.419 31.0649 109.093 31.8376C109.772 32.6103 110.109 33.5743 110.109 34.7234ZM118.948 29.3931H116.009V35.2185C116.009 36.7002 116.527 37.4391 117.565 37.4391C118.041 37.4391 118.436 37.3991 118.749 37.3153L118.823 39.3396C118.298 39.5359 117.606 39.6347 116.749 39.6347C115.696 39.6347 114.873 39.3134 114.279 38.6707C113.688 38.028 113.39 36.9515 113.39 35.4361V29.3881H111.639V27.3876H113.39V25.1907L116.009 24.4005V27.3876H118.948V29.3931ZM132.183 33.293C132.183 35.1372 131.655 36.6514 130.602 37.8355C129.5 39.0546 128.034 39.6622 126.207 39.6622C124.443 39.6622 123.041 39.0783 121.996 37.9117C120.95 36.7427 120.428 35.2698 120.428 33.493C120.428 31.6338 120.968 30.1108 122.045 28.9268C123.124 27.7414 124.577 27.1488 126.404 27.1488C128.165 27.1488 129.58 27.7339 130.651 28.9018C131.674 30.0346 132.183 31.4975 132.183 33.293ZM129.419 33.3542C129.419 32.2552 129.181 31.3124 128.704 30.5235C128.145 29.5707 127.345 29.0943 126.308 29.0943C125.24 29.0943 124.421 29.5707 123.863 30.5235C123.385 31.3124 123.148 32.2714 123.148 33.4043C123.148 34.5046 123.385 35.4498 123.863 36.2363C124.44 37.189 125.244 37.6654 126.286 37.6654C127.305 37.6654 128.104 37.179 128.682 36.2125C129.172 35.4048 129.419 34.4558 129.419 33.3542ZM140.854 29.737C140.576 29.6869 140.295 29.6622 140.013 29.6632C139.075 29.6632 138.35 30.0158 137.839 30.726C137.397 31.3512 137.174 32.1414 137.174 33.0954V39.3909H134.508V31.1711C134.51 29.9116 134.484 28.6522 134.43 27.3938H136.753L136.85 29.6895H136.924C137.207 28.9005 137.649 28.2641 138.257 27.7877C138.813 27.3714 139.49 27.146 140.184 27.145C140.431 27.145 140.653 27.1625 140.851 27.1938L140.854 29.737ZM152.779 32.8241C152.785 33.2293 152.753 33.6343 152.681 34.0332H144.682C144.712 35.2185 145.1 36.1262 145.842 36.7514C146.517 37.3091 147.388 37.5892 148.459 37.5892C149.643 37.5892 150.724 37.4016 151.696 37.0227L152.113 38.872C150.978 39.3671 149.637 39.6135 148.09 39.6135C146.229 39.6135 144.768 39.0658 143.705 37.973C142.645 36.879 142.113 35.4086 142.113 33.5668C142.113 31.7588 142.607 30.2521 143.596 29.0506C144.632 27.7677 146.031 27.1263 147.792 27.1263C149.522 27.1263 150.831 27.7677 151.721 29.0506C152.425 30.0671 152.779 31.3274 152.779 32.8241ZM150.236 32.1327C150.255 31.3412 150.08 30.6597 149.718 30.0833C149.257 29.3406 148.546 28.9705 147.595 28.9705C146.723 28.9705 146.013 29.3319 145.472 30.0571C145.028 30.6335 144.764 31.3262 144.683 32.1302L150.236 32.1327Z" fill="white"/>
<path d="M56.5442 16.8684C55.8026 16.8684 55.161 16.8321 54.627 16.7708V8.72613C55.3739 8.61078 56.1287 8.55392 56.8844 8.55608C59.9423 8.55608 61.3506 10.0602 61.3506 12.5122C61.3506 15.3404 59.6872 16.8684 56.5442 16.8684ZM56.992 9.58762C56.5793 9.58762 56.2278 9.61262 55.9364 9.67264V15.7881C56.094 15.8131 56.3967 15.8243 56.8219 15.8243C58.8255 15.8243 59.9661 14.684 59.9661 12.5484C59.9661 10.6442 58.9343 9.58762 56.992 9.58762ZM65.7392 16.9296C64.0158 16.9296 62.8989 15.643 62.8989 13.8963C62.8989 12.0758 64.0395 10.7779 65.8367 10.7779C67.5352 10.7779 68.677 12.0033 68.677 13.8C68.677 15.643 67.5001 16.9296 65.7392 16.9296ZM65.7892 11.7357C64.8425 11.7357 64.2359 12.6209 64.2359 13.8588C64.2359 15.0729 64.855 15.9581 65.7767 15.9581C66.6985 15.9581 67.3175 15.0116 67.3175 13.8338C67.3175 12.6335 66.711 11.7357 65.7892 11.7357ZM78.5048 10.8992L76.6601 16.7958H75.4582L74.694 14.2351C74.504 13.6088 74.3458 12.9732 74.22 12.3309H74.195C74.0987 12.9735 73.9161 13.6175 73.7223 14.2351L72.9093 16.7958H71.6949L69.959 10.8992H71.306L71.9738 13.7025C72.1314 14.3702 72.264 15.0004 72.374 15.5955H72.399C72.4953 15.0991 72.6529 14.479 72.8843 13.715L73.7223 10.9005H74.7903L75.592 13.655C75.7859 14.3227 75.9435 14.9778 76.066 15.5968H76.101C76.1861 14.9904 76.3199 14.3464 76.5013 13.655L77.2179 10.9005L78.5048 10.8992ZM85.296 16.7958H83.9853V13.4099C83.9853 12.3671 83.5851 11.8445 82.7959 11.8445C82.0192 11.8445 81.4852 12.5122 81.4852 13.2886V16.7958H80.1745V12.5847C80.1745 12.0633 80.162 11.5044 80.1257 10.898H81.2788L81.3401 11.8082H81.3764C81.7291 11.1781 82.4445 10.7779 83.2461 10.7779C84.4843 10.7779 85.2972 11.7245 85.2972 13.2649L85.296 16.7958ZM88.9104 16.7958H87.5985V8.19348H88.9104V16.7958ZM93.6893 16.9296C91.9671 16.9296 90.849 15.643 90.849 13.8963C90.849 12.0758 91.9896 10.7779 93.7856 10.7779C95.4852 10.7779 96.6259 12.0033 96.6259 13.8C96.6271 15.643 95.449 16.9296 93.6893 16.9296ZM93.7381 11.7357C92.7913 11.7357 92.1847 12.6209 92.1847 13.8588C92.1847 15.0729 92.8051 15.9581 93.7243 15.9581C94.6473 15.9581 95.2651 15.0116 95.2651 13.8338C95.2664 12.6335 94.661 11.7357 93.7381 11.7357ZM101.794 16.7958L101.699 16.1169H101.664C101.263 16.6633 100.679 16.9296 99.9389 16.9296C98.8821 16.9296 98.1317 16.1894 98.1317 15.1942C98.1317 13.7388 99.3936 12.986 101.579 12.986V12.8773C101.579 12.1008 101.167 11.7119 100.354 11.7119C99.7726 11.7119 99.2623 11.8582 98.8133 12.1496L98.5469 11.2881C99.0922 10.948 99.7726 10.7779 100.572 10.7779C102.113 10.7779 102.89 11.5907 102.89 13.2174V15.3892C102.89 15.9844 102.917 16.4458 102.976 16.7971L101.794 16.7958ZM101.614 13.8588C100.158 13.8588 99.4274 14.2114 99.4274 15.0479C99.4274 15.6668 99.8038 15.9694 100.327 15.9694C100.993 15.9694 101.614 15.4605 101.614 14.769V13.8588ZM109.255 16.7958L109.194 15.8493H109.158C108.781 16.5645 108.148 16.9296 107.264 16.9296C105.842 16.9296 104.789 15.6793 104.789 13.9201C104.789 12.0758 105.881 10.7767 107.372 10.7767C108.161 10.7767 108.72 11.043 109.035 11.5782H109.061V8.19348H110.373V15.2067C110.373 15.7768 110.387 16.3107 110.422 16.7958H109.255ZM109.061 13.3261C109.061 12.5009 108.515 11.797 107.681 11.797C106.709 11.797 106.115 12.6585 106.115 13.8713C106.115 15.0604 106.731 15.8743 107.654 15.8743C108.479 15.8743 109.061 15.1579 109.061 14.3089V13.3261ZM118.692 16.9296C116.969 16.9296 115.852 15.643 115.852 13.8963C115.852 12.0758 116.993 10.7779 118.789 10.7779C120.489 10.7779 121.629 12.0033 121.629 13.8C121.631 15.643 120.454 16.9296 118.692 16.9296ZM118.74 11.7357C117.795 11.7357 117.188 12.6209 117.188 13.8588C117.188 15.0729 117.807 15.9581 118.728 15.9581C119.651 15.9581 120.269 15.0116 120.269 13.8338C120.271 12.6335 119.665 11.7357 118.74 11.7357ZM128.678 16.7958H127.366V13.4099C127.366 12.3671 126.966 11.8445 126.177 11.8445C125.4 11.8445 124.867 12.5122 124.867 13.2886V16.7958H123.555V12.5847C123.555 12.0633 123.543 11.5044 123.507 10.898H124.66L124.721 11.8082H124.757C125.109 11.1781 125.825 10.7767 126.626 10.7767C127.864 10.7767 128.678 11.7232 128.678 13.2636V16.7958ZM137.497 11.882H136.055V14.7453C136.055 15.4742 136.307 15.8381 136.818 15.8381C137.049 15.8381 137.243 15.8131 137.399 15.7768L137.435 16.7721C137.181 16.8696 136.841 16.9184 136.419 16.9184C135.386 16.9184 134.768 16.3482 134.768 14.8553V11.882H133.907V10.8992H134.768V9.81893L136.055 9.43007V10.898H137.497V11.882ZM144.435 16.7958H143.126V13.4349C143.126 12.3796 142.727 11.8457 141.937 11.8457C141.257 11.8457 140.625 12.3071 140.625 13.2411V16.7958H139.315V8.19348H140.625V11.7357H140.651C141.064 11.093 141.661 10.7767 142.424 10.7767C143.673 10.7767 144.435 11.747 144.435 13.2886V16.7958ZM151.544 14.1626H147.611C147.636 15.2792 148.375 15.9094 149.469 15.9094C150.051 15.9094 150.586 15.8118 151.059 15.6305L151.263 16.5408C150.705 16.7833 150.048 16.9046 149.284 16.9046C147.44 16.9046 146.348 15.7393 146.348 13.9326C146.348 12.1246 147.466 10.7654 149.137 10.7654C150.644 10.7654 151.589 11.882 151.589 13.5687C151.598 13.7678 151.583 13.9671 151.544 14.1626ZM150.342 13.2286C150.342 12.3184 149.883 11.6757 149.045 11.6757C148.292 11.6757 147.697 12.3309 147.612 13.2286H150.342Z" fill="white"/>
<defs>
<linearGradient id="paint0_linear_3_620" x1="123.765" y1="50.1327" x2="123.765" y2="-130.191" gradientUnits="userSpaceOnUse">
<stop stop-color="#1A1A1A" stop-opacity="0.1"/>
<stop offset="0.123" stop-color="#212121" stop-opacity="0.151"/>
<stop offset="0.308" stop-color="#353535" stop-opacity="0.227"/>
<stop offset="0.532" stop-color="#575757" stop-opacity="0.318"/>
<stop offset="0.783" stop-color="#858585" stop-opacity="0.421"/>
<stop offset="1" stop-color="#B3B3B3" stop-opacity="0.51"/>
</linearGradient>
</defs>
</svg>
