<svg width="43" height="43" viewBox="0 0 43 43" fill="none" xmlns="http://www.w3.org/2000/svg">
<mask id="mask0_151_5940" style="mask-type:luminance" maskUnits="userSpaceOnUse" x="0" y="0" width="43" height="43">
<path d="M0 0H42.2222V42.2222H0V0Z" fill="white"/>
</mask>
<g mask="url(#mask0_151_5940)">
<path d="M41.0918 6.39275C41.8364 5.6713 42.2029 4.79167 42.1914 3.75772C42.2029 2.72762 41.8364 1.84028 41.0918 1.09954C40.3742 0.378086 39.4946 0.0115743 38.4606 0C37.4267 0.0115743 36.5432 0.378086 35.8025 1.09954L21.1111 15.8179L6.38889 1.09954C5.66744 0.378086 4.79167 0.0115743 3.75772 0C2.72376 0.0115743 1.83642 0.378086 1.09954 1.09954C0.374228 1.84028 0.00771555 2.72762 0 3.75772C0.00771555 4.79167 0.374228 5.6713 1.09954 6.39275L15.8179 21.1111L1.09954 35.8025C0.374228 36.5432 0.00771555 37.4306 0 38.4606C0.00771555 39.4946 0.374228 40.3742 1.09954 41.0957C1.83642 41.8364 2.72376 42.2029 3.75772 42.1914C4.79167 42.2029 5.66744 41.8364 6.38889 41.0957L21.1111 26.4043L35.8025 41.0957C36.5432 41.8364 37.4267 42.2029 38.4606 42.1914C39.4946 42.2029 40.3742 41.8364 41.0918 41.0957C41.8364 40.3742 42.2029 39.4946 42.1914 38.4606C42.2029 37.4306 41.8364 36.5432 41.0918 35.8025L26.4005 21.1111L41.0918 6.39275Z" fill="black"/>
</g>
</svg>
