<svg width="52" height="52" viewBox="0 0 52 52" fill="none" xmlns="http://www.w3.org/2000/svg">
<path d="M47.8899 17.4806C45.629 15.2197 42.6209 13.9847 39.4269 14.0001C36.2292 14.0195 33.2365 15.2855 30.9988 17.5696L27.1389 21.5146L29.8993 24.1627L33.7359 20.2487C35.2497 18.7001 37.2783 17.8406 39.4463 17.829C39.4618 17.829 39.4772 17.829 39.4928 17.829C41.6414 17.829 43.6623 18.6653 45.1838 20.1867C48.2577 23.2607 48.2577 28.2626 45.1838 31.3365C43.6623 32.858 41.6414 33.6942 39.4928 33.6942C39.4772 33.6942 39.4618 33.6942 39.4463 33.6942C37.2783 33.6827 35.2497 32.8232 33.7359 31.2746L28.3353 25.7617L25.6562 23.0284L20.3174 17.5696C18.0797 15.2855 15.0871 14.0195 11.8893 14.0001C8.6953 13.9847 5.6833 15.2197 3.42624 17.4806C-1.14208 22.0489 -1.14208 29.4783 3.42624 34.0427C5.67168 36.2881 8.64884 37.5231 11.8235 37.5231C11.8466 37.5231 11.866 37.5231 11.8893 37.5231C15.0871 37.5037 18.0797 36.2378 20.3174 33.9536L24.1772 30.0086L21.417 27.3605L17.5803 31.2746C16.0666 32.8232 14.0379 33.6827 11.8699 33.6942C11.8544 33.6942 11.8389 33.6942 11.8235 33.6942C9.67481 33.6942 7.65387 32.858 6.12852 31.3365C3.05458 28.2626 3.05458 23.2607 6.12852 20.1867C7.65387 18.6653 9.67481 17.829 11.8235 17.829C11.8389 17.829 11.8544 17.829 11.8699 17.829C14.0379 17.8406 16.0666 18.7001 17.5803 20.2487L22.981 25.7617L25.6562 28.4988L30.9988 33.9536C33.2365 36.2378 36.2292 37.5037 39.4269 37.5231C39.4501 37.5231 39.4695 37.5231 39.4928 37.5231C42.6635 37.5231 45.6445 36.2881 47.8899 34.0427C52.4583 29.4783 52.4583 22.0489 47.8899 17.4806Z" fill="#DA302F"/>
</svg>
