<svg width="33" height="15" viewBox="0 0 33 15" fill="none" xmlns="http://www.w3.org/2000/svg">
<path d="M30.5974 2.21178C29.1686 0.782972 27.2676 0.00251224 25.2492 0.0122979C23.2283 0.0245313 21.3371 0.824564 19.923 2.26805L17.4837 4.76111L19.2282 6.43458L21.6527 3.96108C22.6093 2.98245 23.8913 2.43931 25.2614 2.43197C25.2712 2.43197 25.281 2.43197 25.2908 2.43197C26.6486 2.43197 27.9258 2.96043 28.8873 3.92194C30.8298 5.86452 30.8298 9.02551 28.8873 10.9681C27.9258 11.9296 26.6486 12.4581 25.2908 12.4581C25.281 12.4581 25.2712 12.4581 25.2614 12.4581C23.8913 12.4507 22.6093 11.9076 21.6527 10.929L18.2397 7.44502L16.5467 5.71773L13.1729 2.26805C11.7587 0.824564 9.86752 0.0245313 7.84665 0.0122979C5.82822 0.00251224 3.92477 0.782972 2.49842 2.21178C-0.388551 5.09874 -0.388551 9.79374 2.49842 12.6783C3.91744 14.0973 5.79886 14.8777 7.80506 14.8777C7.81973 14.8777 7.83197 14.8777 7.84665 14.8777C9.86752 14.8655 11.7587 14.0655 13.1729 12.622L15.6121 10.1289L13.8677 8.45545L11.4431 10.929C10.4865 11.9076 9.2045 12.4507 7.83441 12.4581C7.82463 12.4581 7.81484 12.4581 7.80506 12.4581C6.4472 12.4581 5.17009 11.9296 4.20613 10.9681C2.26354 9.02551 2.26354 5.86452 4.20613 3.92194C5.17009 2.96043 6.4472 2.43197 7.80506 2.43197C7.81484 2.43197 7.82463 2.43197 7.83441 2.43197C9.2045 2.43931 10.4865 2.98245 11.4431 3.96108L14.8561 7.44502L16.5467 9.17475L19.923 12.622C21.3371 14.0655 23.2283 14.8655 25.2492 14.8777C25.2639 14.8777 25.2761 14.8777 25.2908 14.8777C27.2945 14.8777 29.1784 14.0973 30.5974 12.6783C33.4844 9.79374 33.4844 5.09874 30.5974 2.21178Z" fill="white"/>
</svg>
