<svg width="48" height="55" viewBox="0 0 48 55" fill="none" xmlns="http://www.w3.org/2000/svg">
<path d="M47.9742 13.6795C44.8514 13.6795 41.9702 12.645 39.6564 10.8998C37.0028 8.89917 35.0962 5.96449 34.4229 2.58201C34.2562 1.74628 34.1665 0.883825 34.1579 0H25.2374V24.3752L25.2267 37.7266C25.2267 41.2961 22.9022 44.3227 19.6801 45.3872C18.7449 45.696 17.735 45.8424 16.6834 45.7847C15.3411 45.711 14.0832 45.3059 12.9899 44.6519C10.6633 43.2604 9.08591 40.7361 9.04316 37.8485C8.97583 33.3353 12.6244 29.6557 17.1344 29.6557C18.0246 29.6557 18.8796 29.801 19.6801 30.065V23.4027V21.0077C18.8358 20.8826 17.9765 20.8175 17.1077 20.8175C12.1713 20.8175 7.55444 22.8694 4.25426 26.5661C1.75988 29.3597 0.263683 32.9238 0.0328409 36.6611C-0.269605 41.5708 1.5269 46.2379 5.0109 49.6812C5.52282 50.1867 6.06038 50.6559 6.62252 51.0887C9.60958 53.3875 13.2614 54.6337 17.1077 54.6337C17.9765 54.6337 18.8358 54.5695 19.6801 54.4445C23.2731 53.9123 26.5882 52.2675 29.2044 49.6812C32.4191 46.504 34.1953 42.2857 34.2145 37.7961L34.1686 17.8582C35.7022 19.0413 37.379 20.0202 39.1787 20.78C41.9777 21.961 44.9455 22.5595 47.9999 22.5584V16.0809V13.6774C48.002 13.6795 47.9764 13.6795 47.9742 13.6795Z" fill="#323232"/>
</svg>
