<svg width="54" height="55" viewBox="0 0 54 55" fill="none" xmlns="http://www.w3.org/2000/svg">
<g clip-path="url(#clip0_188_27150)">
<path d="M53.9474 15.9474C53.8209 13.0782 53.3569 11.1056 52.6923 9.39638C52.0066 7.58205 50.9517 5.95768 49.5696 4.60733C48.2193 3.23597 46.5842 2.17036 44.7909 1.4954C43.0717 0.83073 41.1094 0.366742 38.2402 0.240237C35.3496 0.103018 34.4319 0.0712891 27.1004 0.0712891C19.7689 0.0712891 18.8512 0.103018 15.9712 0.229523C13.102 0.356028 11.1294 0.820428 9.4206 1.48468C7.60585 2.17036 5.98148 3.22526 4.63114 4.60733C3.25977 5.95768 2.19458 7.59276 1.5192 9.38608C0.854534 11.1056 0.390545 13.0675 0.264041 15.9367C0.126822 18.8274 0.0950928 19.7451 0.0950928 27.0766C0.0950928 34.4081 0.126822 35.3258 0.253327 38.2057C0.379832 41.0749 0.844232 43.0475 1.5089 44.7567C2.19458 46.5711 3.25977 48.1955 4.63114 49.5458C5.98148 50.9172 7.61657 51.9828 9.40989 52.6577C11.1294 53.3224 13.0913 53.7864 15.9609 53.9129C18.8405 54.0398 19.7586 54.0711 27.0901 54.0711C34.4216 54.0711 35.3393 54.0398 38.2192 53.9129C41.0884 53.7864 43.061 53.3224 44.7698 52.6577C48.3989 51.2546 51.2681 48.3854 52.6712 44.7567C53.3355 43.0372 53.7999 41.0749 53.9264 38.2057C54.0529 35.3258 54.0846 34.4081 54.0846 27.0766C54.0846 19.7451 54.0739 18.8274 53.9474 15.9474ZM49.0846 37.9947C48.9684 40.632 48.5254 42.0561 48.1562 43.0055C47.2488 45.358 45.3818 47.225 43.0293 48.1324C42.0799 48.5016 40.6455 48.9446 38.0185 49.0604C35.1703 49.1873 34.3161 49.2186 27.1111 49.2186C19.9061 49.2186 19.0411 49.1873 16.2032 49.0604C13.566 48.9446 12.1419 48.5016 11.1925 48.1324C10.0218 47.6997 8.9562 47.0141 8.09127 46.1174C7.19461 45.2418 6.50893 44.1869 6.07626 43.0162C5.70704 42.0668 5.26407 40.632 5.14828 38.0054C5.02136 35.1572 4.99005 34.3026 4.99005 27.0976C4.99005 19.8926 5.02136 19.0276 5.14828 16.1901C5.26407 13.5529 5.70704 12.1288 6.07626 11.1794C6.50893 10.0083 7.19461 8.94311 8.10198 8.07777C8.97722 7.18111 10.0321 6.49543 11.2032 6.06317C12.1526 5.69395 13.5874 5.25098 16.214 5.13478C19.0622 5.00827 19.9168 4.97654 27.1214 4.97654C34.3371 4.97654 35.1913 5.00827 38.0292 5.13478C40.6665 5.25098 42.0906 5.69395 43.04 6.06317C44.2107 6.49543 45.2763 7.18111 46.1412 8.07777C47.0379 8.95341 47.7235 10.0083 48.1562 11.1794C48.5254 12.1288 48.9684 13.5632 49.0846 16.1901C49.2111 19.0384 49.2428 19.8926 49.2428 27.0976C49.2428 34.3026 49.2111 35.1465 49.0846 37.9947Z" fill="#323232"/>
<path d="M27.1001 13.2046C19.4418 13.2046 13.2283 19.4177 13.2283 27.0764C13.2283 34.7351 19.4418 40.9483 27.1001 40.9483C34.7588 40.9483 40.972 34.7351 40.972 27.0764C40.972 19.4177 34.7588 13.2046 27.1001 13.2046ZM27.1001 36.0748C22.1318 36.0748 18.1018 32.0452 18.1018 27.0764C18.1018 22.1077 22.1318 18.0781 27.1001 18.0781C32.0688 18.0781 36.0984 22.1077 36.0984 27.0764C36.0984 32.0452 32.0688 36.0748 27.1001 36.0748Z" fill="#323232"/>
<path d="M44.7593 12.6564C44.7593 14.4448 43.3092 15.8948 41.5204 15.8948C39.732 15.8948 38.282 14.4448 38.282 12.6564C38.282 10.8676 39.732 9.41797 41.5204 9.41797C43.3092 9.41797 44.7593 10.8676 44.7593 12.6564Z" fill="#323232"/>
</g>
<defs>
<clipPath id="clip0_188_27150">
<rect width="54" height="54" fill="white" transform="translate(0 0.0712891)"/>
</clipPath>
</defs>
</svg>
