<svg width="311" height="145" viewBox="0 0 311 145" fill="none" xmlns="http://www.w3.org/2000/svg">
<path d="M59.5051 29.7528H0C0 13.3237 13.3234 0.000244141 29.7525 0.000244141C46.1833 0.000151072 59.5051 13.3236 59.5051 29.7528Z" fill="url(#paint0_linear_157_397)"/>
<path d="M310.749 29.7528H251.244C251.244 13.3237 264.567 0.000244141 280.996 0.000244141C297.427 0.000151072 310.749 13.3236 310.749 29.7528Z" fill="url(#paint1_linear_157_397)"/>
<path d="M280.996 0C264.567 0 251.244 13.3235 251.244 29.7525V89.2165C251.244 103.089 242.443 115.433 229.328 119.956L160.523 143.682C157.187 144.832 153.562 144.832 150.226 143.682L81.4208 119.956C68.3063 115.433 59.5051 103.089 59.5051 89.2165V29.7525C59.5051 13.3235 46.1834 0 29.7526 0H280.996Z" fill="url(#paint2_linear_157_397)"/>
<path d="M204.524 61.1889V69.713H218.271V77.6369H204.524V86.8814H220.072V95.1054H194.259V52.9648H220.072V61.1889H204.524Z" fill="white"/>
<path d="M172.048 61.1889V69.713H185.794V77.6369H172.048V86.8814H187.595V95.1054H161.783V52.9648H187.595V61.1889H172.048Z" fill="white"/>
<path d="M144.113 95.1054L135.349 79.1976H132.888V95.1054H122.623V52.9648H139.851C143.173 52.9648 145.994 53.5451 148.315 54.7057C150.676 55.8663 152.437 57.467 153.598 59.508C154.758 61.509 155.339 63.7501 155.339 66.2313C155.339 69.0327 154.538 71.5339 152.938 73.735C151.377 75.936 149.056 77.4968 145.974 78.4173L155.699 95.1054H144.113ZM132.888 71.9341H139.251C141.132 71.9341 142.532 71.4739 143.453 70.5534C144.413 69.633 144.894 68.3323 144.894 66.6515C144.894 65.0507 144.413 63.7901 143.453 62.8697C142.532 61.9492 141.132 61.489 139.251 61.489H132.888V71.9341Z" fill="white"/>
<path d="M117.228 52.9648V61.1889H100.059V70.0732H112.906V78.0571H100.059V95.1054H89.7943V52.9648H117.228Z" fill="white"/>
<defs>
<linearGradient id="paint0_linear_157_397" x1="0" y1="14.8765" x2="59.5051" y2="14.8765" gradientUnits="userSpaceOnUse">
<stop stop-color="#DA2F2F"/>
<stop offset="1" stop-color="#992923"/>
</linearGradient>
<linearGradient id="paint1_linear_157_397" x1="251.244" y1="14.8765" x2="310.749" y2="14.8765" gradientUnits="userSpaceOnUse">
<stop stop-color="#992923"/>
<stop offset="1" stop-color="#DA2F2F"/>
</linearGradient>
<linearGradient id="paint2_linear_157_397" x1="155.374" y1="144.544" x2="155.374" y2="5.16931e-05" gradientUnits="userSpaceOnUse">
<stop offset="1" stop-color="#DA2F2F"/>
</linearGradient>
</defs>
</svg>
