<svg width="267" height="26" viewBox="0 0 267 26" fill="none" xmlns="http://www.w3.org/2000/svg">
<mask id="mask0_272_4" style="mask-type:luminance" maskUnits="userSpaceOnUse" x="209" y="0" width="59" height="26">
<path d="M209.6 0H267V25.9375H209.6V0Z" fill="white"/>
</mask>
<g mask="url(#mask0_272_4)">
<path d="M262.846 3.82435C260.375 1.35371 257.088 0.00417117 253.598 0.0210923C250.103 0.0422458 246.833 1.42563 244.388 3.92166L240.17 8.23258L243.186 11.1263L247.379 6.84919C249.033 5.15697 251.25 4.21779 253.619 4.2051C253.636 4.2051 253.653 4.2051 253.67 4.2051C256.018 4.2051 258.226 5.1189 259.888 6.7815C263.248 10.1406 263.248 15.6064 259.888 18.9655C258.226 20.6281 256.018 21.5419 253.67 21.5419C253.653 21.5419 253.636 21.5419 253.619 21.5419C251.25 21.5292 249.033 20.59 247.379 18.8978L241.477 12.8735L238.55 9.88672L232.716 3.92166C230.27 1.42563 227 0.0422458 223.506 0.0210923C220.016 0.00417117 216.724 1.35371 214.258 3.82435C209.266 8.8164 209.266 16.9348 214.258 21.9226C216.712 24.3763 219.965 25.7259 223.434 25.7259C223.459 25.7259 223.48 25.7259 223.506 25.7259C227 25.7047 230.27 24.3213 232.716 21.8253L236.934 17.5144L233.917 14.6207L229.725 18.8978C228.071 20.59 225.854 21.5292 223.485 21.5419C223.468 21.5419 223.451 21.5419 223.434 21.5419C221.086 21.5419 218.878 20.6281 217.211 18.9655C213.852 15.6064 213.852 10.1406 217.211 6.7815C218.878 5.1189 221.086 4.2051 223.434 4.2051C223.451 4.2051 223.468 4.2051 223.485 4.2051C225.854 4.21779 228.071 5.15697 229.725 6.84919L235.626 12.8735L238.55 15.8645L244.388 21.8253C246.833 24.3213 250.103 25.7047 253.598 25.7259C253.623 25.7259 253.644 25.7259 253.67 25.7259C257.134 25.7259 260.392 24.3763 262.846 21.9226C267.838 16.9348 267.838 8.8164 262.846 3.82435Z" fill="white"/>
</g>
<path d="M192.388 11.3156H199.69V13.5606H192.388V11.3156ZM192.598 17.6101H200.885V19.8971H189.87V5.2099H200.592V7.4969H192.598V17.6101Z" fill="white"/>
<path d="M179.007 11.966H186.33V14.274H179.007V11.966ZM179.238 19.8971H176.511V5.2099H187.232V7.4969H179.238V19.8971Z" fill="white"/>
<path d="M169.811 19.8971V5.2099H172.538V19.8971H169.811Z" fill="white"/>
<path d="M157.25 19.8971V5.2099H159.978V17.5891H167.657V19.8971H157.25Z" fill="white"/>
<path d="M138.891 19.8971V5.2099H141.619V17.5891H149.298V19.8971H138.891Z" fill="white"/>
<path d="M121.098 19.8971L127.707 5.2099H130.393L137.023 19.8971H134.17L128.484 6.65763H129.575L123.91 19.8971H121.098ZM124.14 16.498L124.875 14.3579H132.806L133.54 16.498H124.14Z" fill="white"/>
<path d="M106.189 19.8971V5.2099H108.434L117.645 16.519H116.533V5.2099H119.24V19.8971H116.995L107.784 8.58795H108.896V19.8971H106.189Z" fill="white"/>
<path d="M90.8424 19.8971V5.2099H96.8851C98.186 5.2099 99.298 5.41972 100.221 5.83935C101.158 6.25898 101.879 6.86046 102.382 7.64377C102.886 8.42709 103.138 9.35727 103.138 10.4343C103.138 11.5114 102.886 12.4416 102.382 13.2249C101.879 13.9942 101.158 14.5887 100.221 15.0083C99.298 15.414 98.186 15.6168 96.8851 15.6168H92.3531L93.57 14.3789V19.8971H90.8424ZM100.452 19.8971L96.7383 14.5677H99.6547L103.389 19.8971H100.452ZM93.57 14.6726L92.3531 13.3718H96.7592C97.9622 13.3718 98.8644 13.113 99.4659 12.5954C100.081 12.0779 100.389 11.3575 100.389 10.4343C100.389 9.49715 100.081 8.77678 99.4659 8.27322C98.8644 7.76966 97.9622 7.51788 96.7592 7.51788H92.3531L93.57 6.17506V14.6726Z" fill="white"/>
<path d="M79.3042 11.3156H86.6058V13.5606H79.3042V11.3156ZM79.514 17.6101H87.8017V19.8971H76.7864V5.2099H87.508V7.4969H79.514V17.6101Z" fill="white"/>
<path d="M67.144 19.8971V7.51788H62.2762V5.2099H74.7394V7.51788H69.8716V19.8971H67.144Z" fill="white"/>
<path d="M52.6264 11.3156H59.9281V13.5606H52.6264V11.3156ZM52.8363 17.6101H61.124V19.8971H50.1086V5.2099H60.8303V7.4969H52.8363V17.6101Z" fill="white"/>
<path d="M34.6676 19.8971V7.51788H29.7998V5.2099H42.2629V7.51788H37.3952V19.8971H34.6676Z" fill="white"/>
<path d="M20.1496 11.3156H27.4512V13.5606H20.1496V11.3156ZM20.3595 17.6101H28.6472V19.8971H17.6318V5.2099H28.3535V7.4969H20.3595V17.6101Z" fill="white"/>
<path d="M8.28557 20.1068C7.13858 20.1068 6.0825 19.925 5.11734 19.5613C4.16617 19.1836 3.3339 18.6591 2.62053 17.9876C1.90715 17.3022 1.35463 16.4979 0.962975 15.5748C0.571317 14.6516 0.375488 13.6444 0.375488 12.5534C0.375488 11.4624 0.571317 10.4552 0.962975 9.53204C1.35463 8.60885 1.90715 7.81154 2.62053 7.14013C3.34789 6.45473 4.19415 5.93019 5.15931 5.56651C6.12446 5.18884 7.18054 5 8.32754 5C9.57245 5 10.6915 5.20282 11.6846 5.60847C12.6917 6.01411 13.538 6.60859 14.2234 7.39191L12.5029 9.07044C11.9294 8.49694 11.3069 8.07731 10.6355 7.81154C9.97809 7.53179 9.25073 7.39191 8.45343 7.39191C7.6841 7.39191 6.97072 7.5178 6.3133 7.76958C5.65587 8.02136 5.08937 8.37805 4.61378 8.83964C4.1382 9.30124 3.76752 9.84676 3.50175 10.4762C3.24998 11.1057 3.12409 11.7981 3.12409 12.5534C3.12409 13.2947 3.24998 13.9801 3.50175 14.6096C3.76752 15.239 4.1382 15.7916 4.61378 16.2671C5.08937 16.7287 5.64888 17.0854 6.29232 17.3372C6.93575 17.589 7.64913 17.7149 8.43244 17.7149C9.15981 17.7149 9.8592 17.603 10.5306 17.3792C11.216 17.1414 11.8664 16.7497 12.4819 16.2042L14.0345 18.2394C13.2652 18.8549 12.37 19.3235 11.3489 19.6452C10.3418 19.9529 9.32067 20.1068 8.28557 20.1068ZM11.4538 17.8827V12.3855H14.0345V18.2394L11.4538 17.8827Z" fill="white"/>
</svg>
