<svg id="Capa_1" enable-background="new 0 0 512 512" height="512" viewBox="0 0 512 512" width="512" xmlns="http://www.w3.org/2000/svg"><g><path d="m422.504 512h-333.008v-501.698c0-5.69 4.612-10.302 10.302-10.302h312.404c5.69 0 10.302 4.612 10.302 10.302z" fill="#eff3f5"/><path d="m403.772 0v512h18.732v-501.698c0-5.69-4.612-10.302-10.302-10.302z" fill="#c9e2e7"/><g fill="#62b4fd"><path d="m230.962 439.154c-3.414 0-6.181 2.767-6.181 6.181v66.665h62.439v-66.664c0-3.414-2.767-6.181-6.181-6.181h-50.077z"/><g><path d="m137.429 206.049h-14.695c-3.414 0-6.181-2.767-6.181-6.181v-29.264c0-3.414 2.767-6.181 6.181-6.181h14.695c3.414 0 6.181 2.767 6.181 6.181v29.264c0 3.413-2.768 6.181-6.181 6.181z"/><path d="m200.388 206.049h-14.695c-3.414 0-6.181-2.767-6.181-6.181v-29.264c0-3.414 2.767-6.181 6.181-6.181h14.695c3.414 0 6.181 2.767 6.181 6.181v29.264c0 3.413-2.767 6.181-6.181 6.181z"/><path d="m263.347 206.049h-14.695c-3.414 0-6.181-2.767-6.181-6.181v-29.264c0-3.414 2.767-6.181 6.181-6.181h14.695c3.414 0 6.181 2.767 6.181 6.181v29.264c0 3.413-2.767 6.181-6.181 6.181z"/><path d="m326.307 206.049h-14.695c-3.414 0-6.181-2.767-6.181-6.181v-29.264c0-3.414 2.767-6.181 6.181-6.181h14.695c3.414 0 6.181 2.767 6.181 6.181v29.264c0 3.413-2.768 6.181-6.181 6.181z"/><path d="m389.266 206.049h-14.695c-3.414 0-6.181-2.767-6.181-6.181v-29.264c0-3.414 2.767-6.181 6.181-6.181h14.695c3.414 0 6.181 2.767 6.181 6.181v29.264c0 3.413-2.767 6.181-6.181 6.181z"/></g><g><path d="m137.429 274.732h-14.695c-3.414 0-6.181-2.767-6.181-6.181v-29.264c0-3.414 2.767-6.181 6.181-6.181h14.695c3.414 0 6.181 2.767 6.181 6.181v29.264c0 3.413-2.768 6.181-6.181 6.181z"/><path d="m200.388 274.732h-14.695c-3.414 0-6.181-2.767-6.181-6.181v-29.264c0-3.414 2.767-6.181 6.181-6.181h14.695c3.414 0 6.181 2.767 6.181 6.181v29.264c0 3.413-2.767 6.181-6.181 6.181z"/><path d="m263.347 274.732h-14.695c-3.414 0-6.181-2.767-6.181-6.181v-29.264c0-3.414 2.767-6.181 6.181-6.181h14.695c3.414 0 6.181 2.767 6.181 6.181v29.264c0 3.413-2.767 6.181-6.181 6.181z"/><path d="m326.307 274.732h-14.695c-3.414 0-6.181-2.767-6.181-6.181v-29.264c0-3.414 2.767-6.181 6.181-6.181h14.695c3.414 0 6.181 2.767 6.181 6.181v29.264c0 3.413-2.768 6.181-6.181 6.181z"/><path d="m389.266 274.732h-14.695c-3.414 0-6.181-2.767-6.181-6.181v-29.264c0-3.414 2.767-6.181 6.181-6.181h14.695c3.414 0 6.181 2.767 6.181 6.181v29.264c0 3.413-2.767 6.181-6.181 6.181z"/></g><g><path d="m137.429 343.415h-14.695c-3.414 0-6.181-2.767-6.181-6.181v-29.264c0-3.414 2.767-6.181 6.181-6.181h14.695c3.414 0 6.181 2.767 6.181 6.181v29.264c0 3.413-2.768 6.181-6.181 6.181z"/><path d="m200.388 343.415h-14.695c-3.414 0-6.181-2.767-6.181-6.181v-29.264c0-3.414 2.767-6.181 6.181-6.181h14.695c3.414 0 6.181 2.767 6.181 6.181v29.264c0 3.413-2.767 6.181-6.181 6.181z"/><path d="m263.347 343.415h-14.695c-3.414 0-6.181-2.767-6.181-6.181v-29.264c0-3.414 2.767-6.181 6.181-6.181h14.695c3.414 0 6.181 2.767 6.181 6.181v29.264c0 3.413-2.767 6.181-6.181 6.181z"/><path d="m326.307 343.415h-14.695c-3.414 0-6.181-2.767-6.181-6.181v-29.264c0-3.414 2.767-6.181 6.181-6.181h14.695c3.414 0 6.181 2.767 6.181 6.181v29.264c0 3.413-2.768 6.181-6.181 6.181z"/><path d="m389.266 343.415h-14.695c-3.414 0-6.181-2.767-6.181-6.181v-29.264c0-3.414 2.767-6.181 6.181-6.181h14.695c3.414 0 6.181 2.767 6.181 6.181v29.264c0 3.413-2.767 6.181-6.181 6.181z"/></g><g><path d="m137.429 412.098h-14.695c-3.414 0-6.181-2.767-6.181-6.181v-29.264c0-3.414 2.767-6.181 6.181-6.181h14.695c3.414 0 6.181 2.767 6.181 6.181v29.264c0 3.413-2.768 6.181-6.181 6.181z"/><path d="m200.388 412.098h-14.695c-3.414 0-6.181-2.767-6.181-6.181v-29.264c0-3.414 2.767-6.181 6.181-6.181h14.695c3.414 0 6.181 2.767 6.181 6.181v29.264c0 3.413-2.767 6.181-6.181 6.181z"/><path d="m263.347 412.098h-14.695c-3.414 0-6.181-2.767-6.181-6.181v-29.264c0-3.414 2.767-6.181 6.181-6.181h14.695c3.414 0 6.181 2.767 6.181 6.181v29.264c0 3.413-2.767 6.181-6.181 6.181z"/><path d="m326.307 412.098h-14.695c-3.414 0-6.181-2.767-6.181-6.181v-29.264c0-3.414 2.767-6.181 6.181-6.181h14.695c3.414 0 6.181 2.767 6.181 6.181v29.264c0 3.413-2.768 6.181-6.181 6.181z"/><path d="m389.266 412.098h-14.695c-3.414 0-6.181-2.767-6.181-6.181v-29.264c0-3.414 2.767-6.181 6.181-6.181h14.695c3.414 0 6.181 2.767 6.181 6.181v29.264c0 3.413-2.767 6.181-6.181 6.181z"/></g></g><path d="m501.698 512h-79.194v-447.48h79.194c5.69 0 10.302 4.612 10.302 10.302v426.876c0 5.69-4.612 10.302-10.302 10.302z" fill="#c9e2e7"/><path d="m474.599 206.049h-14.695c-3.414 0-6.181-2.767-6.181-6.181v-29.264c0-3.414 2.767-6.181 6.181-6.181h14.695c3.414 0 6.181 2.767 6.181 6.181v29.264c0 3.413-2.767 6.181-6.181 6.181z" fill="#62b4fd"/><path d="m474.599 274.732h-14.695c-3.414 0-6.181-2.767-6.181-6.181v-29.264c0-3.414 2.767-6.181 6.181-6.181h14.695c3.414 0 6.181 2.767 6.181 6.181v29.264c0 3.413-2.767 6.181-6.181 6.181z" fill="#62b4fd"/><path d="m474.599 137.366h-14.695c-3.414 0-6.181-2.767-6.181-6.181v-29.264c0-3.414 2.767-6.181 6.181-6.181h14.695c3.414 0 6.181 2.767 6.181 6.181v29.264c0 3.413-2.767 6.181-6.181 6.181z" fill="#62b4fd"/><path d="m474.599 343.415h-14.695c-3.414 0-6.181-2.767-6.181-6.181v-29.264c0-3.414 2.767-6.181 6.181-6.181h14.695c3.414 0 6.181 2.767 6.181 6.181v29.264c0 3.413-2.767 6.181-6.181 6.181z" fill="#62b4fd"/><path d="m474.599 412.098h-14.695c-3.414 0-6.181-2.767-6.181-6.181v-29.264c0-3.414 2.767-6.181 6.181-6.181h14.695c3.414 0 6.181 2.767 6.181 6.181v29.264c0 3.413-2.767 6.181-6.181 6.181z" fill="#62b4fd"/><path d="m422.504 64.52h18.732v447.48h-18.732z" fill="#a8d0d5"/><path d="m10.302 512h79.194v-447.48h-79.194c-5.69 0-10.302 4.613-10.302 10.302v426.876c0 5.69 4.612 10.302 10.302 10.302z" fill="#c9e2e7"/><path d="m37.401 206.049h14.695c3.414 0 6.181-2.767 6.181-6.181v-29.264c0-3.414-2.767-6.181-6.181-6.181h-14.695c-3.414 0-6.181 2.767-6.181 6.181v29.264c0 3.413 2.767 6.181 6.181 6.181z" fill="#62b4fd"/><path d="m37.401 274.732h14.695c3.414 0 6.181-2.767 6.181-6.181v-29.264c0-3.414-2.767-6.181-6.181-6.181h-14.695c-3.414 0-6.181 2.767-6.181 6.181v29.264c0 3.413 2.767 6.181 6.181 6.181z" fill="#62b4fd"/><path d="m37.401 137.366h14.695c3.414 0 6.181-2.767 6.181-6.181v-29.264c0-3.414-2.767-6.181-6.181-6.181h-14.695c-3.414 0-6.181 2.767-6.181 6.181v29.264c0 3.413 2.767 6.181 6.181 6.181z" fill="#62b4fd"/><path d="m37.401 343.415h14.695c3.414 0 6.181-2.767 6.181-6.181v-29.264c0-3.414-2.767-6.181-6.181-6.181h-14.695c-3.414 0-6.181 2.767-6.181 6.181v29.264c0 3.413 2.767 6.181 6.181 6.181z" fill="#62b4fd"/><path d="m37.401 412.098h14.695c3.414 0 6.181-2.767 6.181-6.181v-29.264c0-3.414-2.767-6.181-6.181-6.181h-14.695c-3.414 0-6.181 2.767-6.181 6.181v29.264c0 3.413 2.767 6.181 6.181 6.181z" fill="#62b4fd"/><path d="m70.764 64.52h18.732v447.48h-18.732z" fill="#a8d0d5"/><g><path d="m187.317 127.064v-127.064h137.366v127.064c0 5.69-4.612 10.302-10.302 10.302h-116.762c-5.69 0-10.302-4.612-10.302-10.302z" fill="#fb636f"/><path d="m293.505 53.073h-17.775c-2.276 0-4.121-1.845-4.121-4.121v-17.774c0-2.276-1.845-4.121-4.121-4.121h-22.978c-2.276 0-4.121 1.845-4.121 4.121v17.775c0 2.276-1.845 4.121-4.121 4.121h-17.775c-2.276 0-4.121 1.845-4.121 4.121v22.978c0 2.276 1.845 4.121 4.121 4.121h17.775c2.276 0 4.121 1.845 4.121 4.121v17.775c0 2.276 1.845 4.121 4.121 4.121h22.978c2.276 0 4.121-1.845 4.121-4.121v-17.777c0-2.276 1.845-4.121 4.121-4.121h17.775c2.276 0 4.121-1.845 4.121-4.121v-22.977c0-2.276-1.845-4.121-4.121-4.121z" fill="#eff3f5"/></g><path d="m248.274 439.154h15.453v72.846h-15.453z" fill="#27a2fb"/></g></svg>