<svg width="227" height="38" viewBox="0 0 227 38" fill="none" xmlns="http://www.w3.org/2000/svg">
<path d="M19.5414 0C21.7405 0 23.6232 0.56713 25.1896 1.69753C26.7637 2.83179 27.7899 4.23997 28.276 5.92593C28.3879 6.35031 28.4458 6.77469 28.4458 7.20679C28.4458 8.17515 28.1217 8.93518 27.4735 9.49074C26.8331 10.0463 26.1309 10.3241 25.3593 10.3241C24.7922 10.3241 24.2521 10.1698 23.739 9.86111C23.222 9.54475 22.8208 9.05864 22.5353 8.41049C22.1649 7.66204 21.7366 7.06404 21.2544 6.62037C20.7683 6.18055 20.1973 5.94907 19.5414 5.92593C19.2212 5.89506 18.8045 5.97222 18.2914 6.15741C17.7745 6.34259 17.3231 6.6358 16.9334 7.03704C16.5515 7.43827 16.3624 7.95525 16.3624 8.58025C16.3624 9.375 16.6479 10.2276 17.2266 11.142C17.8015 12.0602 18.4843 12.9591 19.2791 13.8426L19.8038 14.3981C20.6873 15.3781 21.5476 16.4159 22.3809 17.5154C23.222 18.6073 23.928 19.7917 24.4951 21.0648C25.07 22.3302 25.3593 23.7114 25.3593 25.2006C25.3593 26.8596 25.0044 28.4066 24.2945 29.8457C23.5846 31.2886 22.6201 32.5579 21.4087 33.6574C20.1934 34.7608 18.8007 35.625 17.2266 36.25C15.6525 36.8789 14.009 37.1914 12.3038 37.1914C10.6757 37.1914 9.11705 36.929 7.62785 36.4043C6.14637 35.8719 4.82306 35.1157 3.6618 34.1358C2.50825 33.1481 1.60161 31.9714 0.945749 30.6019C0.286026 29.2245 -0.0110413 27.6813 0.0506871 25.9722C0.0506871 24.7685 0.409483 23.8657 1.13093 23.2562C1.8601 22.6389 2.65871 22.3302 3.52291 22.3302C4.34467 22.3302 5.09698 22.6196 5.776 23.1944C6.46272 23.7616 6.80995 24.6566 6.80995 25.8796C6.80995 25.9645 6.80995 26.0571 6.80995 26.1574C6.80995 26.2616 6.79837 26.3696 6.77908 26.4815C6.74822 27.9938 7.26519 29.1821 8.33772 30.0463C9.4064 30.9028 10.7143 31.3387 12.2575 31.358C13.2027 31.358 14.117 31.1381 15.0044 30.6944C15.8879 30.2546 16.6248 29.6142 17.2112 28.7809C17.7976 27.9398 18.0908 26.9444 18.0908 25.8025C18.0908 24.5177 17.6896 23.3333 16.8871 22.2531C16.0846 21.1651 15.1819 20 14.1865 18.7654C13.384 17.7701 12.597 16.7824 11.8254 15.8025C11.0538 14.8148 10.4133 13.7809 9.9118 12.7006C9.41797 11.6127 9.17106 10.4475 9.17106 9.21296C9.17106 8.81173 9.20964 8.40664 9.29452 7.99383C9.38711 7.58488 9.48742 7.16049 9.60316 6.72839C10.0854 5.27778 10.8416 4.05478 11.8717 3.05556C12.8979 2.04861 14.0823 1.28858 15.4211 0.771605C16.7675 0.258488 18.141 0 19.5414 0Z" fill="black"/>
<path d="M51.8373 24.7685C52.0727 24.0586 52.4392 23.5455 52.933 23.2253C53.4346 22.9089 53.9554 22.7469 54.4917 22.7469C55.1784 22.7469 55.7957 22.9475 56.3435 23.3488C56.8875 23.75 57.1614 24.2824 57.1614 24.9383C57.1614 25.1659 57.1151 25.4398 57.0225 25.7562C55.9924 28.7307 54.8196 31.0455 53.504 32.7006C52.1961 34.3596 50.8265 35.5208 49.3991 36.1883C47.9677 36.8596 46.5673 37.1914 45.2015 37.1914C43.9978 37.1914 42.8481 36.9676 41.7602 36.5123C40.6799 36.0494 39.8042 35.3665 39.1367 34.4599C38.4654 33.5455 38.1336 32.4151 38.1336 31.0648C38.1336 30.2122 38.3034 29.2708 38.6429 28.2407L41.7756 19.2901C41.8875 19.0548 41.9454 18.7963 41.9454 18.5185C41.9454 18.1173 41.8065 17.7855 41.5287 17.5154C41.2586 17.2377 40.9153 17.0988 40.4947 17.0988C39.835 17.0988 39.1676 17.3727 38.4886 17.9167C37.8173 18.4645 37.2579 19.1474 36.8065 19.9691L31.6213 34.6142C31.3127 35.5015 30.8651 36.1535 30.2787 36.5741C29.6923 36.9869 29.0827 37.1914 28.4577 37.1914C27.7363 37.1914 27.0804 36.9136 26.4824 36.358C25.8883 35.8025 25.5873 35.0386 25.5873 34.0586C25.5873 33.5262 25.6877 32.9707 25.8806 32.392L36.1583 3.25617C36.5596 2.1142 37.038 1.28858 37.5935 0.771605C38.1491 0.258488 38.8435 0 39.6768 0C40.3867 0 41.0349 0.246914 41.6213 0.740741C42.2077 1.22685 42.5009 1.92515 42.5009 2.83951C42.5009 3.11728 42.4546 3.41821 42.362 3.73457C42.2772 4.04321 42.1807 4.375 42.0688 4.72222L39.3836 12.608C40.2363 12.2299 41.1468 12.037 42.1151 12.037C43.288 12.037 44.3373 12.311 45.2633 12.8549C46.1892 13.4028 46.9222 14.1319 47.4701 15.0463C48.014 15.9645 48.288 16.9907 48.288 18.1327C48.288 18.5031 48.2571 18.885 48.1954 19.2747C48.1414 19.6566 48.0449 20.0463 47.9022 20.4475L44.3836 30.4167C44.2988 30.5941 44.2602 30.7793 44.2602 30.9722C44.2602 31.2924 44.3759 31.5586 44.6151 31.7747C44.862 31.9907 45.1861 32.0988 45.5873 32.0988C46.5518 32.0988 47.6012 31.5239 48.7355 30.3704C49.8659 29.2091 50.8998 27.3418 51.8373 24.7685Z" fill="black"/>
<path d="M77.2541 22.716C77.8791 22.716 78.4269 22.9012 78.8899 23.2716C79.3606 23.642 79.5998 24.1975 79.5998 24.9383C79.5998 25.3086 79.4956 25.7832 79.2911 26.358C79.0944 26.9251 78.8436 27.6234 78.535 28.4568C77.6168 30.7716 76.5211 32.5579 75.2479 33.8117C73.9825 35.0694 72.6708 35.9491 71.3127 36.4506C69.9547 36.9444 68.6777 37.1913 67.4856 37.1913C67.0535 37.1913 66.4709 37.1373 65.7418 37.0216C65.0087 36.9097 64.2796 36.6898 63.5504 36.358C62.829 36.0301 62.2387 35.5363 61.7757 34.8765C60.981 35.5864 60.0936 36.1535 59.106 36.5741C58.1183 36.9869 57.1229 37.1913 56.1276 37.1913C54.8698 37.1913 53.7433 36.8981 52.7479 36.3117C51.7487 35.7253 50.9578 34.946 50.3714 33.966C49.785 32.9784 49.4918 31.8981 49.4918 30.7253C49.4918 30.3241 49.5342 29.9344 49.6152 29.5525C49.7001 29.1628 49.7965 28.7809 49.9084 28.4105L53.9362 16.8827C54.5111 15.2276 55.4833 14.0085 56.8529 13.2253C58.2186 12.4344 59.6036 12.037 61.0041 12.037C62.0921 12.037 63.045 12.1682 63.859 12.4228C64.6692 12.6813 65.3097 12.9552 65.7726 13.2407C66.1121 12.6968 66.5635 12.2917 67.1306 12.0216C67.7055 11.7554 68.2919 11.6204 68.8899 11.6204C69.6924 11.6204 70.41 11.8634 71.0504 12.3457C71.6986 12.8318 72.0226 13.5455 72.0226 14.4907C72.0226 14.9151 71.9339 15.3819 71.7603 15.8951L66.9609 29.7839C66.8143 30.3009 66.7448 30.7099 66.7448 31.0185C66.7448 31.74 67.1306 32.0988 67.9023 32.0988C68.5581 32.0988 69.2641 31.8788 70.0165 31.4352C70.7765 30.9954 71.5288 30.2585 72.2695 29.2284C73.018 28.2022 73.6623 26.8133 74.1986 25.0617C74.4532 24.24 74.8776 23.642 75.464 23.2716C76.0504 22.9012 76.6445 22.716 77.2541 22.716ZM63.1029 22.2839C63.4501 21.196 63.6276 20.3511 63.6276 19.7531C63.6276 19.0123 63.4424 18.4529 63.072 18.071C62.7016 17.6813 62.3158 17.4846 61.9146 17.4846C61.5635 17.4846 61.1276 17.6505 60.6029 17.9784C60.0782 18.3102 59.6152 19.1319 59.214 20.4475L56.4671 29.0586C56.4131 29.2554 56.359 29.4753 56.2973 29.7222C56.2433 29.9614 56.2202 30.2238 56.2202 30.5093C56.2202 31.5702 56.687 32.0988 57.6245 32.0988C58.0874 32.0988 58.6584 31.8788 59.3374 31.4352C60.0242 30.9954 60.5952 30.0733 61.0504 28.6728L63.1029 22.2839Z" fill="black"/>
<path d="M94.5917 24.7685C94.7962 24.1127 95.1395 23.6497 95.6256 23.3796C96.1079 23.1019 96.621 22.963 97.1689 22.963C97.8556 22.963 98.4883 23.1597 99.067 23.5494C99.6534 23.9313 99.9466 24.4522 99.9466 25.108C99.9466 25.3164 99.9042 25.5478 99.8232 25.8025C98.5655 29.4252 96.9297 32.2299 94.9158 34.213C92.9096 36.1999 90.7337 37.1914 88.388 37.1914C87.2151 37.1914 86.1272 36.9367 85.1318 36.4198C84.1326 35.9066 83.3417 35.1852 82.7553 34.2593C82.1689 33.3333 81.8756 32.2531 81.8756 31.0185C81.8756 30.1659 82.0454 29.2554 82.3849 28.287L84.2676 23.0556C84.3602 22.7392 84.4065 22.4807 84.4065 22.284C84.4065 21.8017 84.2522 21.4313 83.9435 21.1728C83.6426 20.9182 83.28 20.7099 82.8479 20.5556C82.4235 20.3935 82.0145 20.2546 81.6133 20.1389L79.2213 26.5741C78.9628 27.2531 78.5577 27.7701 78.0022 28.1173C77.4466 28.4568 76.8641 28.6265 76.2584 28.6265C75.6604 28.6265 75.1241 28.4491 74.6534 28.0864C74.1789 27.7276 73.9435 27.1914 73.9435 26.4815C73.9435 26.196 73.9898 25.8796 74.0824 25.5401L77.1997 17.0988C76.4898 16.2153 76.1349 15.2006 76.1349 14.0586C76.1349 12.8357 76.4898 11.7515 77.1997 10.8025C77.9173 9.85726 78.905 9.38272 80.1627 9.38272C81.1272 9.38272 81.9837 9.74538 82.7244 10.463C83.4729 11.1728 83.851 12.0293 83.851 13.0247C83.851 13.4259 83.7931 13.7886 83.6812 14.1049C84.2753 14.2708 84.9968 14.5178 85.8417 14.8457C86.6827 15.1775 87.5161 15.598 88.3417 16.1111C89.175 16.6281 89.8579 17.2492 90.3942 17.9784C90.9381 18.7114 91.2121 19.5911 91.2121 20.6173C91.2121 20.9877 91.1735 21.3696 91.104 21.7593C91.0307 22.1412 90.9227 22.5424 90.78 22.963L88.2645 30C88.1411 30.3086 88.0793 30.625 88.0793 30.9414C88.0793 31.2191 88.1565 31.4815 88.3108 31.7284C88.4729 31.9753 88.7005 32.0988 88.9898 32.0988C89.9042 32.0988 90.8648 31.4005 91.8756 30C92.8942 28.6034 93.7969 26.8596 94.5917 24.7685Z" fill="black"/>
<path d="M114.825 25.108C115.018 24.4522 115.396 23.9583 115.951 23.6266C116.507 23.2986 117.086 23.1327 117.695 23.1327C118.343 23.1327 118.918 23.3141 119.424 23.6729C119.925 24.0355 120.18 24.5448 120.18 25.2006C120.18 25.4784 120.122 25.7793 120.01 26.0957C119.061 28.8117 117.745 30.9838 116.06 32.608C114.37 34.2361 112.514 35.409 110.489 36.1266C108.459 36.8364 106.449 37.1914 104.455 37.1914C102.364 37.1914 100.481 36.8596 98.8064 36.1883C97.1398 35.5208 95.8203 34.5641 94.8558 33.3179C93.8874 32.0756 93.4052 30.6096 93.4052 28.9198C93.4052 28.4375 93.4515 27.9398 93.5441 27.4229C93.6444 26.9097 93.7833 26.3966 93.9607 25.8796L96.4916 18.5494C97.2323 16.412 98.4399 14.7917 100.118 13.6883C101.804 12.5887 103.606 12.037 105.519 12.037C107.144 12.037 108.56 12.3573 109.763 12.9938C110.967 13.6227 111.901 14.483 112.572 15.571C113.239 16.6512 113.575 17.8781 113.575 19.2438C113.575 19.9537 113.459 20.7408 113.235 21.6049C112.657 23.5185 111.584 25.0463 110.01 26.1883C108.444 27.3303 106.692 27.9012 104.748 27.9012C103.891 27.9012 103.085 27.7778 102.325 27.5309C101.573 27.284 100.882 26.9753 100.257 26.6049L99.9175 27.4229C99.8249 27.6312 99.7632 27.8318 99.7323 28.0247C99.7092 28.2215 99.7015 28.4221 99.7015 28.6266C99.7015 29.5949 100.153 30.4167 101.06 31.0957C101.974 31.767 103.22 32.0988 104.794 32.0988C106.017 32.0988 107.279 31.8634 108.575 31.3889C109.879 30.9182 111.09 30.1659 112.201 29.1358C113.32 28.1096 114.196 26.767 114.825 25.108ZM105.396 17.0988C104.91 17.0988 104.424 17.284 103.93 17.6543C103.444 18.0247 103.089 18.5417 102.865 19.1975L101.97 21.7747C102.564 22.1142 103.305 22.284 104.192 22.284C104.848 22.284 105.462 22.1412 106.029 21.8519C106.603 21.5664 106.993 21.0648 107.201 20.3549C107.313 20.0386 107.371 19.6914 107.371 19.321C107.371 18.696 107.19 18.1713 106.831 17.7469C106.468 17.3148 105.99 17.0988 105.396 17.0988Z" fill="black"/>
<path d="M144.931 22.9321C145.105 22.3071 145.456 21.848 145.981 21.5586C146.513 21.2731 147.08 21.1265 147.678 21.1265C148.334 21.1265 148.932 21.3079 149.468 21.6667C150.012 22.0177 150.286 22.5231 150.286 23.179C150.286 23.4992 150.228 23.8272 150.116 24.1667C149.291 26.6782 148.257 28.9198 147.015 30.8951C145.768 32.8627 144.306 34.4059 142.632 35.5247C140.965 36.6358 139.059 37.1914 136.922 37.1914C135.44 37.1914 134.082 36.8981 132.848 36.3117C131.621 35.7253 130.641 34.892 129.9 33.8117C129.16 32.7238 128.789 31.4198 128.789 29.9074C128.789 28.8812 128.959 27.8356 129.298 26.7747C129.7 25.6636 130.043 24.7145 130.332 23.9198C130.618 23.1173 130.957 22.1296 131.351 20.9568C130.062 20.9568 128.828 20.9684 127.647 20.9877C126.463 20.9992 125.201 21.0031 123.866 21.0031C123.434 22.311 122.944 23.7616 122.4 25.3549C121.852 26.9406 121.309 28.5262 120.765 30.108C120.228 31.6937 119.734 33.1404 119.283 34.4444C118.994 35.4244 118.511 36.1265 117.832 36.5586C117.161 36.983 116.474 37.1914 115.765 37.1914C114.908 37.1914 114.136 36.9252 113.45 36.3889C112.763 35.8449 112.416 35.1157 112.416 34.1975C112.416 33.7654 112.505 33.3256 112.678 32.8704L116.752 21.0031H115.718C114.916 21.0031 114.271 20.7253 113.789 20.1698C113.307 19.6065 113.064 18.9969 113.064 18.3488C113.064 17.662 113.349 17.0332 113.913 16.466C114.488 15.8912 115.433 15.6019 116.752 15.6019H118.635L122.956 3.25617C123.272 2.14506 123.805 1.32716 124.545 0.802469C125.286 0.270062 126.027 0 126.768 0C127.539 0 128.222 0.270062 128.82 0.802469C129.426 1.32716 129.731 2.09105 129.731 3.08642C129.731 3.66512 129.626 4.25154 129.422 4.84568L125.749 15.6019H133.157C133.589 14.3789 134.036 13.0324 134.499 11.5586C134.97 10.0887 135.448 8.61883 135.934 7.14506C136.428 5.67515 136.883 4.32099 137.308 3.08642C137.709 2.00617 138.241 1.22685 138.913 0.740741C139.592 0.246914 140.286 0 140.996 0C141.818 0 142.559 0.304784 143.218 0.910494C143.874 1.50849 144.206 2.3071 144.206 3.30247C144.206 3.73457 144.121 4.23611 143.959 4.79938L136.119 27.8549C135.83 28.6806 135.687 29.3943 135.687 30C135.687 30.6289 135.842 31.088 136.15 31.3735C136.467 31.6512 136.899 31.7901 137.447 31.7901C138.843 31.7901 140.197 31.0108 141.505 29.4444C142.821 27.8704 143.963 25.7022 144.931 22.9321Z" fill="black"/>
<path d="M164.564 25.108C164.757 24.4522 165.135 23.9583 165.691 23.6266C166.246 23.2986 166.825 23.1327 167.435 23.1327C168.083 23.1327 168.658 23.3141 169.163 23.6729C169.664 24.0355 169.919 24.5448 169.919 25.2006C169.919 25.4784 169.861 25.7793 169.749 26.0957C168.8 28.8117 167.485 30.9838 165.799 32.608C164.109 34.2361 162.253 35.409 160.228 36.1266C158.198 36.8364 156.188 37.1914 154.194 37.1914C152.103 37.1914 150.22 36.8596 148.546 36.1883C146.879 35.5208 145.56 34.5641 144.595 33.3179C143.627 32.0756 143.144 30.6096 143.144 28.9198C143.144 28.4375 143.191 27.9398 143.283 27.4229C143.384 26.9097 143.522 26.3966 143.7 25.8796L146.231 18.5494C146.972 16.412 148.179 14.7917 149.857 13.6883C151.543 12.5887 153.345 12.037 155.259 12.037C156.883 12.037 158.299 12.3573 159.502 12.9938C160.706 13.6227 161.64 14.483 162.311 15.571C162.979 16.6512 163.314 17.8781 163.314 19.2438C163.314 19.9537 163.198 20.7408 162.975 21.6049C162.396 23.5185 161.323 25.0463 159.749 26.1883C158.183 27.3303 156.431 27.9012 154.487 27.9012C153.631 27.9012 152.824 27.7778 152.064 27.5309C151.312 27.284 150.621 26.9753 149.996 26.6049L149.657 27.4229C149.564 27.6312 149.502 27.8318 149.472 28.0247C149.448 28.2215 149.441 28.4221 149.441 28.6266C149.441 29.5949 149.892 30.4167 150.799 31.0957C151.713 31.767 152.959 32.0988 154.533 32.0988C155.756 32.0988 157.018 31.8634 158.314 31.3889C159.618 30.9182 160.83 30.1659 161.941 29.1358C163.06 28.1096 163.935 26.767 164.564 25.108ZM155.135 17.0988C154.649 17.0988 154.163 17.284 153.669 17.6543C153.183 18.0247 152.828 18.5417 152.604 19.1975L151.709 21.7747C152.303 22.1142 153.044 22.284 153.931 22.284C154.587 22.284 155.201 22.1412 155.768 21.8519C156.343 21.5664 156.732 21.0648 156.941 20.3549C157.053 20.0386 157.11 19.6914 157.11 19.321C157.11 18.696 156.929 18.1713 156.57 17.7469C156.208 17.3148 155.729 17.0988 155.135 17.0988Z" fill="black"/>
<path d="M190.056 22.716C190.681 22.716 191.229 22.9012 191.692 23.2716C192.163 23.642 192.402 24.1975 192.402 24.9383C192.402 25.3086 192.298 25.7832 192.093 26.358C191.897 26.9251 191.646 27.6234 191.337 28.4568C190.419 30.7716 189.323 32.5579 188.05 33.8117C186.785 35.0694 185.473 35.9491 184.115 36.4506C182.757 36.9444 181.48 37.1913 180.288 37.1913C179.856 37.1913 179.273 37.1373 178.544 37.0216C177.811 36.9097 177.082 36.6898 176.353 36.358C175.631 36.0301 175.041 35.5363 174.578 34.8765C173.783 35.5864 172.896 36.1535 171.908 36.5741C170.92 36.9869 169.925 37.1913 168.93 37.1913C167.672 37.1913 166.545 36.8981 165.55 36.3117C164.551 35.7253 163.76 34.946 163.174 33.966C162.587 32.9784 162.294 31.8981 162.294 30.7253C162.294 30.3241 162.336 29.9344 162.417 29.5525C162.502 29.1628 162.599 28.7809 162.711 28.4105L166.738 16.8827C167.313 15.2276 168.285 14.0085 169.655 13.2253C171.021 12.4344 172.406 12.037 173.806 12.037C174.894 12.037 175.847 12.1682 176.661 12.4228C177.471 12.6813 178.112 12.9552 178.575 13.2407C178.914 12.6968 179.366 12.2917 179.933 12.0216C180.508 11.7554 181.094 11.6204 181.692 11.6204C182.495 11.6204 183.212 11.8634 183.853 12.3457C184.501 12.8318 184.825 13.5455 184.825 14.4907C184.825 14.9151 184.736 15.3819 184.562 15.8951L179.763 29.7839C179.616 30.3009 179.547 30.7099 179.547 31.0185C179.547 31.74 179.933 32.0988 180.704 32.0988C181.36 32.0988 182.066 31.8788 182.819 31.4352C183.579 30.9954 184.331 30.2585 185.072 29.2284C185.82 28.2022 186.464 26.8133 187.001 25.0617C187.255 24.24 187.68 23.642 188.266 23.2716C188.853 22.9012 189.447 22.716 190.056 22.716ZM175.905 22.2839C176.252 21.196 176.43 20.3511 176.43 19.7531C176.43 19.0123 176.245 18.4529 175.874 18.071C175.504 17.6813 175.118 17.4846 174.717 17.4846C174.366 17.4846 173.93 17.6505 173.405 17.9784C172.88 18.3102 172.417 19.1319 172.016 20.4475L169.269 29.0586C169.215 29.2554 169.161 29.4753 169.099 29.7222C169.045 29.9614 169.022 30.2238 169.022 30.5093C169.022 31.5702 169.489 32.0988 170.427 32.0988C170.89 32.0988 171.461 31.8788 172.14 31.4352C172.826 30.9954 173.397 30.0733 173.853 28.6728L175.905 22.2839Z" fill="black"/>
<path d="M207.394 24.7685C207.598 24.1127 207.942 23.6497 208.428 23.3796C208.91 23.1019 209.423 22.963 209.971 22.963C210.658 22.963 211.29 23.1597 211.869 23.5494C212.455 23.9313 212.749 24.4522 212.749 25.108C212.749 25.3164 212.706 25.5478 212.625 25.8025C211.367 29.4252 209.732 32.2299 207.718 34.213C205.712 36.1999 203.536 37.1914 201.19 37.1914C200.017 37.1914 198.929 36.9367 197.934 36.4198C196.935 35.9066 196.144 35.1852 195.557 34.2593C194.971 33.3333 194.678 32.2531 194.678 31.0185C194.678 30.1659 194.847 29.2554 195.187 28.287L197.07 23.0556C197.162 22.7392 197.209 22.4807 197.209 22.284C197.209 21.8017 197.054 21.4313 196.746 21.1728C196.445 20.9182 196.082 20.7099 195.65 20.5556C195.225 20.3935 194.817 20.2546 194.415 20.1389L192.023 26.5741C191.765 27.2531 191.36 27.7701 190.804 28.1173C190.249 28.4568 189.666 28.6265 189.06 28.6265C188.462 28.6265 187.926 28.4491 187.455 28.0864C186.981 27.7276 186.746 27.1914 186.746 26.4815C186.746 26.196 186.792 25.8796 186.884 25.5401L190.002 17.0988C189.292 16.2153 188.937 15.2006 188.937 14.0586C188.937 12.8357 189.292 11.7515 190.002 10.8025C190.719 9.85726 191.707 9.38272 192.965 9.38272C193.929 9.38272 194.786 9.74538 195.526 10.463C196.275 11.1728 196.653 12.0293 196.653 13.0247C196.653 13.4259 196.595 13.7886 196.483 14.1049C197.077 14.2708 197.799 14.5178 198.644 14.8457C199.485 15.1775 200.318 15.598 201.144 16.1111C201.977 16.6281 202.66 17.2492 203.196 17.9784C203.74 18.7114 204.014 19.5911 204.014 20.6173C204.014 20.9877 203.975 21.3696 203.906 21.7593C203.833 22.1412 203.725 22.5424 203.582 22.963L201.067 30C200.943 30.3086 200.881 30.625 200.881 30.9414C200.881 31.2191 200.959 31.4815 201.113 31.7284C201.275 31.9753 201.502 32.0988 201.792 32.0988C202.706 32.0988 203.667 31.4005 204.678 30C205.696 28.6034 206.599 26.8596 207.394 24.7685Z" fill="black"/>
<path d="M221.238 25.108C221.493 24.429 221.886 23.9313 222.411 23.6111C222.943 23.2948 223.48 23.1327 224.016 23.1327C224.672 23.1327 225.266 23.3256 225.791 23.7037C226.323 24.0741 226.593 24.5833 226.593 25.2315C226.593 25.3549 226.578 25.4938 226.547 25.6481C226.516 25.8025 226.473 25.9529 226.423 26.0957C225.196 29.6065 223.491 32.3302 221.3 34.2747C219.116 36.2191 216.655 37.1914 213.908 37.1914C212.457 37.1914 211.091 36.9252 209.818 36.3889C208.553 35.8449 207.534 35.054 206.763 34.0123C205.991 32.963 205.605 31.7091 205.605 30.2469C205.605 29.3634 205.775 28.4066 206.115 27.3765V27.4228L209.71 17.0988H208.306C207.727 17.0988 207.272 16.8789 206.933 16.4352C206.593 15.9954 206.423 15.4745 206.423 14.8765C206.423 14.1898 206.686 13.5455 207.21 12.9475C207.735 12.3418 208.568 12.037 209.71 12.037H211.516L214.942 2.48457C215.196 1.74383 215.605 1.14969 216.161 0.694444C216.716 0.231481 217.353 0 218.074 0C219.008 0 219.741 0.285493 220.266 0.848765C220.798 1.40432 221.068 2.07948 221.068 2.87037C221.068 3.10957 221.026 3.37963 220.945 3.68827L218.074 12.037H220.003C220.825 12.037 221.423 12.2492 221.794 12.6698C222.164 13.0826 222.349 13.5764 222.349 14.1512C222.349 14.8611 222.06 15.5324 221.485 16.1574C220.918 16.7863 220.096 17.0988 219.016 17.0988H216.223L212.025 29.0586C211.994 29.1937 211.956 29.348 211.917 29.5216C211.875 29.6991 211.855 29.8573 211.855 30C211.855 30.5671 212.075 31.061 212.519 31.4815C212.959 31.8943 213.568 32.0988 214.34 32.0988C215.594 32.0988 216.844 31.5239 218.09 30.3704C219.332 29.2091 220.382 27.4537 221.238 25.108Z" fill="black"/>
</svg>
