<svg width="170" height="36" viewBox="0 0 170 36" fill="none" xmlns="http://www.w3.org/2000/svg">
<path d="M157.5 0C150.598 0 145 5.643 145 12.6C145 22.05 157.5 36 157.5 36C157.5 36 170 22.05 170 12.6C170 5.643 164.402 0 157.5 0ZM157.5 17.1C155.036 17.1 153.036 15.084 153.036 12.6C153.036 10.116 155.036 8.1 157.5 8.1C159.964 8.1 161.964 10.116 161.964 12.6C161.964 15.084 159.964 17.1 157.5 17.1Z" fill="white"/>
<path d="M131.562 10.2133H134.335V25.1447H131.562V10.2133ZM123.841 25.1447H121.068V10.2133H123.841V25.1447ZM131.776 18.7455H123.606V16.3779H131.776V18.7455Z" fill="white"/>
<path d="M112.481 25.3579C111.343 25.3579 110.284 25.1731 109.303 24.8034C108.336 24.4194 107.489 23.8861 106.764 23.2036C106.053 22.5068 105.499 21.6891 105.1 20.7505C104.702 19.812 104.503 18.7881 104.503 17.6789C104.503 16.5698 104.702 15.5459 105.1 14.6073C105.499 13.6688 106.06 12.8582 106.786 12.1757C107.511 11.4789 108.357 10.9456 109.324 10.5759C110.291 10.1919 111.35 9.99994 112.502 9.99994C113.725 9.99994 114.841 10.2132 115.851 10.6399C116.861 11.0522 117.714 11.6708 118.411 12.4956L116.619 14.1807C116.079 13.5977 115.474 13.164 114.806 12.8796C114.137 12.5809 113.412 12.4316 112.63 12.4316C111.848 12.4316 111.13 12.5596 110.476 12.8156C109.836 13.0715 109.274 13.4342 108.791 13.9034C108.321 14.3727 107.952 14.9273 107.681 15.5672C107.425 16.2071 107.297 16.911 107.297 17.6789C107.297 18.4468 107.425 19.1508 107.681 19.7907C107.952 20.4306 108.321 20.9852 108.791 21.4545C109.274 21.9237 109.836 22.2863 110.476 22.5423C111.13 22.7983 111.848 22.9263 112.63 22.9263C113.412 22.9263 114.137 22.7841 114.806 22.4996C115.474 22.201 116.079 21.7531 116.619 21.1558L118.411 22.8623C117.714 23.6728 116.861 24.2914 115.851 24.718C114.841 25.1446 113.718 25.3579 112.481 25.3579Z" fill="white"/>
<path d="M89.9675 25.1447V10.2133H96.1107C97.4332 10.2133 98.5637 10.4266 99.5023 10.8532C100.455 11.2798 101.187 11.8913 101.699 12.6877C102.211 13.484 102.467 14.4297 102.467 15.5246C102.467 16.6196 102.211 17.5653 101.699 18.3616C101.187 19.1437 100.455 19.7481 99.5023 20.1747C98.5637 20.5871 97.4332 20.7933 96.1107 20.7933H91.5033L92.7405 19.5348V25.1447H89.9675ZM99.7369 25.1447L95.9614 19.7267H98.9264L102.723 25.1447H99.7369ZM92.7405 19.8334L91.5033 18.5109H95.9827C97.2057 18.5109 98.1229 18.2478 98.7344 17.7217C99.3601 17.1955 99.6729 16.4632 99.6729 15.5246C99.6729 14.5719 99.3601 13.8395 98.7344 13.3276C98.1229 12.8156 97.2057 12.5597 95.9827 12.5597H91.5033L92.7405 11.1945V19.8334Z" fill="white"/>
<path d="M79.5569 25.358C77.5092 25.358 75.9023 24.7821 74.7362 23.6302C73.5843 22.4784 73.0084 20.8146 73.0084 18.6389V10.2133H75.7814V18.5322C75.7814 20.068 76.1085 21.1843 76.7626 21.8811C77.431 22.5779 78.3695 22.9263 79.5782 22.9263C80.787 22.9263 81.7184 22.5779 82.3725 21.8811C83.0267 21.1843 83.3537 20.068 83.3537 18.5322V10.2133H86.0841V18.6389C86.0841 20.8146 85.501 22.4784 84.335 23.6302C83.1831 24.7821 81.5904 25.358 79.5569 25.358Z" fill="white"/>
<path d="M66.3623 10.2133H69.1353V25.1447H66.3623V10.2133ZM58.6406 25.1447H55.8677V10.2133H58.6406V25.1447ZM66.5756 18.7455H58.406V16.3779H66.5756V18.7455Z" fill="white"/>
<path d="M47.2811 25.3579C46.1435 25.3579 45.084 25.1731 44.1028 24.8034C43.1359 24.4194 42.2897 23.8861 41.5645 23.2036C40.8535 22.5068 40.2989 21.6891 39.9007 20.7505C39.5026 19.812 39.3035 18.7881 39.3035 17.6789C39.3035 16.5698 39.5026 15.5459 39.9007 14.6073C40.2989 13.6688 40.8606 12.8582 41.5858 12.1757C42.3111 11.4789 43.1572 10.9456 44.1242 10.5759C45.0912 10.1919 46.1506 9.99994 47.3024 9.99994C48.5254 9.99994 49.6417 10.2132 50.6513 10.6399C51.661 11.0522 52.5142 11.6708 53.211 12.4956L51.4192 14.1807C50.8789 13.5977 50.2745 13.164 49.6061 12.8796C48.9378 12.5809 48.2125 12.4316 47.4304 12.4316C46.6483 12.4316 45.9302 12.5596 45.276 12.8156C44.6361 13.0715 44.0744 13.4342 43.5909 13.9034C43.1216 14.3727 42.7519 14.9273 42.4817 15.5672C42.2258 16.2071 42.0978 16.911 42.0978 17.6789C42.0978 18.4468 42.2258 19.1508 42.4817 19.7907C42.7519 20.4306 43.1216 20.9852 43.5909 21.4545C44.0744 21.9237 44.6361 22.2863 45.276 22.5423C45.9302 22.7983 46.6483 22.9263 47.4304 22.9263C48.2125 22.9263 48.9378 22.7841 49.6061 22.4996C50.2745 22.201 50.8789 21.7531 51.4192 21.1558L53.211 22.8623C52.5142 23.6728 51.661 24.2914 50.6513 24.718C49.6417 25.1446 48.5183 25.3579 47.2811 25.3579Z" fill="white"/>
<path d="M24.0414 25.1447V19.2361L24.66 20.9426L18.1755 10.2133H21.1405L26.3451 18.8522H24.6814L29.9287 10.2133H32.659L26.1745 20.9426L26.8144 19.2361V25.1447H24.0414Z" fill="white"/>
<path d="M0 25.1447V10.2133H2.28237L8.80952 21.1132H7.61501L14.0355 10.2133H16.3179L16.3392 25.1447H13.7156L13.6942 14.3301H14.2488L8.78819 23.4383H7.55102L2.00507 14.3301H2.64499V25.1447H0Z" fill="white"/>
</svg>
