<svg width="52" height="52" viewBox="0 0 52 52" fill="none" xmlns="http://www.w3.org/2000/svg">
<g clip-path="url(#clip0_212_425)">
<mask id="mask0_212_425" style="mask-type:luminance" maskUnits="userSpaceOnUse" x="3" y="0" width="46" height="52">
<path d="M3.18262 0H48.3678V51.8518H3.18262V0Z" fill="white"/>
</mask>
<g mask="url(#mask0_212_425)">
<path fill-rule="evenodd" clip-rule="evenodd" d="M21.5006 5.05015C20.3161 6.28471 19.4134 8.27931 19.4134 11.2423V14.6296H32.3995V11.2423C32.3995 5.87962 28.9967 3.34876 25.8678 3.26774C24.2668 3.2253 22.685 3.81172 21.5006 5.05015ZM35.6479 14.6296V11.2423C35.6479 4.22067 30.9373 0.150454 25.9489 0.0231397C23.4913 -0.0424464 21.0106 0.868048 19.1549 2.80478C17.2953 4.74536 16.1688 7.6003 16.1688 11.2423V14.6296H3.18262V43.8464C3.18262 48.3295 6.81688 51.9637 11.2999 51.9637H40.5168C44.9998 51.9637 48.6341 48.3295 48.6341 43.8464V14.6296H35.6479ZM32.3995 17.8742V19.4984H35.6479V17.8742H45.3856V43.8464C45.3856 46.5355 43.2058 48.7153 40.5168 48.7153H11.2999C8.607 48.7153 6.42722 46.5355 6.42722 43.8464V17.8742H16.1688V19.4984H19.4134V17.8742H32.3995Z" fill="#FF5757"/>
</g>
</g>
<defs>
<clipPath id="clip0_212_425">
<rect width="46" height="52" fill="white" transform="translate(3)"/>
</clipPath>
</defs>
</svg>
