<svg width="24" height="26" viewBox="0 0 24 26" fill="none" xmlns="http://www.w3.org/2000/svg">
<path d="M23.3913 6.51978C21.9074 6.51978 20.5384 6.02821 19.439 5.19895C18.1781 4.24833 17.2721 2.85388 16.9522 1.24665C16.873 0.849541 16.8303 0.439736 16.8263 0.0197754H12.5876V11.602L12.5825 17.9461C12.5825 19.6422 11.478 21.0803 9.94693 21.5861C9.5026 21.7328 9.02272 21.8024 8.52303 21.775C7.88521 21.7399 7.28752 21.5475 6.76803 21.2367C5.66252 20.5755 4.91299 19.3761 4.89268 18.004C4.86068 15.8595 6.59436 14.1111 8.73732 14.1111C9.16033 14.1111 9.56658 14.1801 9.94693 14.3056V11.1399V10.0018C9.54576 9.94243 9.13748 9.91145 8.72463 9.91145C6.37904 9.91145 4.18529 10.8865 2.61717 12.643C1.43193 13.9704 0.720995 15.664 0.611308 17.4398C0.467597 19.7727 1.32123 21.9903 2.9767 23.6265C3.21994 23.8667 3.47537 24.0896 3.74248 24.2952C5.16182 25.3875 6.89701 25.9797 8.72463 25.9797C9.13748 25.9797 9.54576 25.9492 9.94693 25.8898C11.6542 25.6369 13.2294 24.8554 14.4726 23.6265C16.0001 22.1167 16.844 20.1124 16.8532 17.9791L16.8313 8.50532C17.5601 9.06747 18.3568 9.53263 19.212 9.89368C20.5419 10.4548 21.9521 10.7392 23.4035 10.7387V7.66083V6.51876C23.4045 6.51978 23.3923 6.51978 23.3913 6.51978Z" fill="white"/>
</svg>
