<svg width="90" height="83" viewBox="0 0 90 83" fill="none" xmlns="http://www.w3.org/2000/svg">
<mask id="mask0_219_894" style="mask-type:alpha" maskUnits="userSpaceOnUse" x="0" y="10" width="90" height="64">
<rect y="10" width="90" height="64" fill="#D9D9D9"/>
</mask>
<g mask="url(#mask0_219_894)">
<path d="M69 71C69 62.2479 66.5241 53.8542 62.117 47.6655C57.7099 41.4768 51.7326 38 45.5 38C39.2674 38 33.2901 41.4768 28.883 47.6655C24.4759 53.8542 22 62.2479 22 71L45.5 71H69Z" fill="#C1CFDD"/>
<path d="M17.7972 40.4967C12.0416 40.4967 7.35938 35.8571 7.35938 30.156C7.35938 24.4542 12.0416 19.8145 17.7972 19.8145C23.5522 19.8145 28.2337 24.4535 28.2337 30.156C28.2337 35.8578 23.5522 40.4967 17.7972 40.4967ZM17.7972 22.7168C13.6415 22.7168 10.2617 26.0541 10.2617 30.156C10.2617 34.2572 13.6415 37.5945 17.7972 37.5945C21.9515 37.5945 25.3314 34.2572 25.3314 30.156C25.3314 26.0541 21.9515 22.7168 17.7972 22.7168Z" fill="#596A7B"/>
<path d="M21.996 69.1282H3.7929C1.7013 69.1282 0 67.4372 0 65.3592V60.6132C0 50.8955 7.9834 42.9893 17.797 42.9893C21.6566 42.9893 25.3305 44.1939 28.4184 46.4719C29.0632 46.9481 29.2006 47.8565 28.7245 48.502C28.2483 49.146 27.3407 49.2835 26.6952 48.8081C24.1096 46.9006 21.033 45.8916 17.797 45.8916C9.584 45.8916 2.9023 52.4961 2.9023 60.6132V65.3592C2.9023 65.8372 3.3019 66.2262 3.7929 66.2262H21.9967C22.7973 66.2262 23.4478 66.8762 23.4478 67.6772C23.4478 68.4782 22.7973 69.1282 21.996 69.1282Z" fill="#596A7B"/>
<path d="M86.177 68.03H67.9738C67.1731 68.03 66.5226 67.38 66.5226 66.579C66.5226 65.778 67.1731 65.128 67.9738 65.128H86.177C86.669 65.128 87.068 64.739 87.068 64.262V59.515C87.068 51.397 80.386 44.7939 72.1734 44.7939C68.7433 44.7939 65.3946 45.9751 62.7438 48.1206C62.1217 48.6244 61.2084 48.5287 60.7032 47.9059C60.1994 47.2831 60.2943 46.369 60.9186 45.8645C64.0837 43.3031 68.0807 41.8916 72.1734 41.8916C81.986 41.8916 89.97 49.7971 89.97 59.515V64.262C89.97 66.339 88.268 68.03 86.177 68.03Z" fill="#596A7B"/>
<path d="M72.1747 39.7795C66.4198 39.7795 61.7383 35.1405 61.7383 29.4387C61.7383 23.7369 66.4198 19.0972 72.1747 19.0972C77.9304 19.0972 82.6125 23.7362 82.6125 29.4387C82.6125 35.1412 77.9297 39.7795 72.1747 39.7795ZM72.1747 21.9995C68.0204 21.9995 64.6406 25.3368 64.6406 29.4387C64.6406 33.5406 68.0204 36.8772 72.1747 36.8772C76.3305 36.8772 79.7103 33.5406 79.7103 29.4387C79.7103 25.3368 76.3298 21.9995 72.1747 21.9995Z" fill="#596A7B"/>
<path d="M64.6807 73.8501H25.2902C22.6735 73.8501 20.5449 71.7371 20.5449 69.1391V62.4631C20.5449 49.1211 31.5078 38.2666 44.9854 38.2666C58.463 38.2666 69.4259 49.1211 69.4259 62.4631V69.1391C69.4259 71.7371 67.2974 73.8501 64.6807 73.8501ZM44.9854 41.1696C33.1092 41.1696 23.4472 50.7224 23.4472 62.4641V69.1401C23.4472 70.1371 24.2741 70.9481 25.2902 70.9481H64.68C65.6961 70.9481 66.523 70.1371 66.523 69.1401V62.4641C66.5237 50.7224 56.8617 41.1696 44.9854 41.1696Z" fill="#596A7B"/>
<path d="M44.4801 36.5712C37.0855 36.5712 31.0684 30.6114 31.0684 23.2849C31.0684 15.959 37.0848 10 44.4801 10C51.8761 10 57.8925 15.9597 57.8925 23.2856C57.8925 30.6121 51.8753 36.5712 44.4801 36.5712ZM44.4801 12.9023C38.6854 12.9023 33.9706 17.5604 33.9706 23.2856C33.9706 29.0115 38.6854 33.6696 44.4801 33.6696C50.2754 33.6696 54.9902 29.0115 54.9902 23.2856C54.9902 17.5604 50.2754 12.9023 44.4801 12.9023Z" fill="#596A7B"/>
</g>
</svg>
