<svg width="90" height="83" viewBox="0 0 90 83" fill="none" xmlns="http://www.w3.org/2000/svg">
<path d="M41.1749 72.7848C41.6689 73.2893 42.3415 73.5695 43.0457 73.5695C43.7499 73.5695 44.4226 73.2893 44.9165 72.7848L78.5293 38.7291C92.5473 24.5302 82.5864 0 62.6514 0C50.6798 0 45.1864 8.79681 43.0457 10.4399C40.8945 8.78981 35.4361 0 23.4401 0C3.56812 0 -6.51499 24.4671 7.56563 38.7291L41.1749 72.7848Z" fill="#C1CFDD"/>
<path d="M47.097 80.9019L47.0922 80.8961L13.4829 46.8408C0.468577 33.659 9.83106 11.0938 28.1106 11.0938C36.9877 11.0938 41.6911 16.082 44.6449 19.2145C45.419 20.0355 46.0728 20.729 46.6502 21.1718L47.7166 21.9899L48.7829 21.1715C49.3555 20.7319 50.0065 20.0426 50.7779 19.2258C53.7335 16.0959 58.4571 11.0938 67.3219 11.0938C85.6526 11.0938 94.9127 33.7132 81.9534 46.8406L48.3405 80.8961L48.3356 80.9019C48.1736 81.0666 47.9532 81.16 47.7162 81.16C47.4794 81.16 47.2589 81.0666 47.097 80.9019Z" stroke="#596A7B" stroke-width="3"/>
</svg>
