<svg width="90" height="83" viewBox="0 0 90 83" fill="none" xmlns="http://www.w3.org/2000/svg">
<path d="M72.7014 30.1466C72.7014 13.934 59.1387 0.923337 42.8607 2.07045C29.1902 3.02887 18.0915 14.1809 17.0787 27.9975C16.1879 40.166 22.9476 50.8388 33.0047 55.6235C34.5132 56.3422 35.4759 57.8742 35.4759 59.5586V66.2305V71.2693C35.4759 76.1347 39.003 80.4033 43.7873 80.9401C49.4409 81.5724 54.2323 77.1149 54.2323 71.5238V59.5586C54.2323 57.8742 55.2021 56.3422 56.7106 55.6235C66.1571 51.1147 72.7014 41.4075 72.7014 30.1466Z" stroke="#596A7B" stroke-width="2.5" stroke-miterlimit="10"/>
<path d="M54.2251 65.8462H35.4688" stroke="#596A7B" stroke-width="2.5" stroke-miterlimit="10"/>
<path d="M44.8503 31.9541C39.3979 31.9541 34.9585 36.441 34.9585 41.9518V47.7746C37.8534 49.5171 41.237 50.5263 44.8503 50.5263C48.4636 50.5263 51.8472 49.5244 54.7421 47.7746V41.9518C54.7421 36.441 50.3027 31.9541 44.8503 31.9541Z" fill="#C1CFDD"/>
<path d="M30.0812 41.9519C30.0812 33.7186 36.7045 27.0244 44.8507 27.0244C52.9969 27.0244 59.6202 33.7186 59.6202 41.9519V43.6001C62.4793 40.1877 64.2033 35.7806 64.2033 30.9669C64.2033 20.1634 55.5399 11.4072 44.8507 11.4072C34.1614 11.4072 25.498 20.1634 25.498 30.9669C25.498 35.7878 27.2221 40.1949 30.0812 43.6001V41.9519Z" fill="#C1CFDD"/>
</svg>
