<svg width="90" height="83" viewBox="0 0 90 83" fill="none" xmlns="http://www.w3.org/2000/svg">
<path d="M45.4057 43.0078C54.0354 43.0078 61.0312 36.012 61.0312 27.3823C61.0312 18.7526 54.0354 11.7568 45.4057 11.7568C36.7761 11.7568 29.7803 18.7526 29.7803 27.3823C29.7803 36.012 36.7761 43.0078 45.4057 43.0078Z" fill="#C1CFDD"/>
<path d="M72.0184 27.4979C72.0184 30.12 66.8697 31.8879 66.102 34.2518C65.3078 36.7016 68.405 41.1579 66.9226 43.1973C65.4269 45.2566 60.2187 43.6806 58.1605 45.1771C56.1221 46.6603 56.0229 52.1098 53.5743 52.9043C51.2116 53.6724 47.9424 49.3486 45.3218 49.3486C42.7011 49.3486 39.4318 53.6724 37.0692 52.9043C34.6206 52.1098 34.5213 46.6603 32.4829 45.1771C30.4248 43.6806 25.2164 45.2566 23.7207 43.1973C22.2383 41.1579 25.3356 36.7016 24.5415 34.2518C23.7738 31.8879 18.625 30.1133 18.625 27.4979C18.625 24.8824 23.7738 23.1079 24.5415 20.744C25.3356 18.2941 22.2383 13.8378 23.7207 11.7984C25.2164 9.73924 30.4248 11.3151 32.4829 9.81863C34.5213 8.33547 34.6206 2.88605 37.0692 2.09142C39.4318 1.32338 42.7011 5.64719 45.3218 5.64719C47.9424 5.64719 51.2116 1.32338 53.5743 2.09142C56.0229 2.88605 56.1221 8.33547 58.1605 9.81863C60.2187 11.3151 65.4269 9.73924 66.9226 11.7984C68.405 13.8378 65.3078 18.2941 66.102 20.744C66.8631 23.1012 72.0184 24.8757 72.0184 27.4979Z" stroke="#596A7B" stroke-width="2.5" stroke-miterlimit="10"/>
<path d="M44.9053 54.0235L56.0962 79.6021C56.844 81.3102 59.1602 81.5021 59.736 79.9068L61.5825 73.769C61.9398 72.7682 63.0914 72.3782 64.1238 72.9074L70.1526 76.3175C71.8006 77.159 73.3624 75.6691 72.6211 73.9672L59.6168 44.2437" stroke="#596A7B" stroke-width="2.5" stroke-miterlimit="10"/>
<path d="M46.7716 49.7593L33.7144 79.6021C32.9666 81.3102 30.6504 81.5021 30.0746 79.9068L28.2282 73.769C27.8708 72.7682 26.7193 72.3782 25.6869 72.9074L19.658 76.3175C18.0101 77.159 16.4482 75.6691 17.1894 73.9672L30.2004 44.2437" stroke="#596A7B" stroke-width="2.5" stroke-miterlimit="10"/>
</svg>
