<svg width="269" height="23" viewBox="0 0 269 23" fill="none" xmlns="http://www.w3.org/2000/svg">
<mask id="mask0_271_2" style="mask-type:luminance" maskUnits="userSpaceOnUse" x="218" y="0" width="51" height="23">
<path d="M218 0.318115H268.195V23H218V0.318115Z" fill="white"/>
</mask>
<g mask="url(#mask0_271_2)">
<path d="M264.562 3.6625C262.402 1.50198 259.527 0.321827 256.475 0.336624C253.419 0.355123 250.56 1.56487 248.421 3.74759L244.733 7.51742L247.371 10.0479L251.037 6.30767C252.483 4.82786 254.422 4.00656 256.494 3.99546C256.508 3.99546 256.523 3.99546 256.538 3.99546C258.591 3.99546 260.522 4.79456 261.976 6.24848C264.914 9.18591 264.914 13.9657 261.976 16.9031C260.522 18.357 258.591 19.1561 256.538 19.1561C256.523 19.1561 256.508 19.1561 256.494 19.1561C254.422 19.145 252.483 18.3238 251.037 16.8439L245.876 11.5758L243.316 8.96393L238.214 3.74759C236.076 1.56487 233.216 0.355123 230.16 0.336624C227.108 0.321827 224.23 1.50198 222.073 3.6625C217.708 8.02795 217.708 15.1274 222.073 19.4891C224.219 21.6348 227.064 22.815 230.097 22.815C230.12 22.815 230.138 22.815 230.16 22.815C233.216 22.7965 236.076 21.5867 238.214 19.404L241.903 15.6342L239.265 13.1037L235.599 16.8439C234.152 18.3238 232.214 19.145 230.142 19.1561C230.127 19.1561 230.112 19.1561 230.097 19.1561C228.044 19.1561 226.113 18.357 224.655 16.9031C221.718 13.9657 221.718 9.18591 224.655 6.24848C226.113 4.79456 228.044 3.99546 230.097 3.99546C230.112 3.99546 230.127 3.99546 230.142 3.99546C232.214 4.00656 234.152 4.82786 235.599 6.30767L240.76 11.5758L243.316 14.1914L248.421 19.404C250.56 21.5867 253.419 22.7965 256.475 22.815C256.497 22.815 256.516 22.815 256.538 22.815C259.568 22.815 262.417 21.6348 264.562 19.4891C268.928 15.1274 268.928 8.02795 264.562 3.6625Z" fill="black"/>
</g>
<path d="M190.889 11.271H198.139V13.5002H190.889V11.271ZM191.097 17.521H199.327V19.7918H188.389V5.2085H199.035V7.47933H191.097V17.521Z" fill="black"/>
<path d="M177.603 11.9168H184.874V14.2085H177.603V11.9168ZM177.832 19.7918H175.124V5.2085H185.77V7.47933H177.832V19.7918Z" fill="black"/>
<path d="M168.471 19.7918V5.2085H171.18V19.7918H168.471Z" fill="black"/>
<path d="M156 19.7918V5.2085H158.708V17.5002H166.333V19.7918H156Z" fill="black"/>
<path d="M137.771 19.7918V5.2085H140.479V17.5002H148.104V19.7918H137.771Z" fill="black"/>
<path d="M120.104 19.7918L126.666 5.2085H129.333L135.916 19.7918H133.083L127.437 6.646H128.52L122.895 19.7918H120.104ZM123.124 16.4168L123.854 14.2918H131.729L132.458 16.4168H123.124Z" fill="black"/>
<path d="M105.3 19.7918V5.2085H107.529L116.675 16.4377H115.571V5.2085H118.258V19.7918H116.029L106.883 8.56266H107.987V19.7918H105.3Z" fill="black"/>
<path d="M90.0615 19.7918V5.2085H96.0615C97.3532 5.2085 98.4574 5.41683 99.374 5.8335C100.305 6.25016 101.02 6.84739 101.52 7.62516C102.02 8.40294 102.27 9.32655 102.27 10.396C102.27 11.4654 102.02 12.3891 101.52 13.1668C101.02 13.9307 100.305 14.521 99.374 14.9377C98.4574 15.3404 97.3532 15.5418 96.0615 15.5418H91.5615L92.7699 14.3127V19.7918H90.0615ZM99.6032 19.7918L95.9157 14.5002H98.8115L102.52 19.7918H99.6032ZM92.7699 14.6043L91.5615 13.3127H95.9365C97.131 13.3127 98.0268 13.0557 98.624 12.5418C99.2351 12.0279 99.5407 11.3127 99.5407 10.396C99.5407 9.46544 99.2351 8.75016 98.624 8.25016C98.0268 7.75016 97.131 7.50016 95.9365 7.50016H91.5615L92.7699 6.16683V14.6043Z" fill="black"/>
<path d="M78.6047 11.271H85.8547V13.5002H78.6047V11.271ZM78.8131 17.521H87.0422V19.7918H76.1047V5.2085H86.7506V7.47933H78.8131V17.521Z" fill="black"/>
<path d="M66.5306 19.7918V7.50016H61.6972V5.2085H74.0722V7.50016H69.2389V19.7918H66.5306Z" fill="black"/>
<path d="M52.1155 11.271H59.3655V13.5002H52.1155V11.271ZM52.3238 17.521H60.553V19.7918H49.6155V5.2085H60.2613V7.47933H52.3238V17.521Z" fill="black"/>
<path d="M34.2836 19.7918V7.50016H29.4503V5.2085H41.8253V7.50016H36.992V19.7918H34.2836Z" fill="black"/>
<path d="M19.8686 11.271H27.1186V13.5002H19.8686V11.271ZM20.0769 17.521H28.3061V19.7918H17.3686V5.2085H28.0144V7.47933H20.0769V17.521Z" fill="black"/>
<path d="M8.08815 20C6.94926 20 5.90065 19.8194 4.94231 19.4583C3.99787 19.0833 3.17148 18.5625 2.46315 17.8958C1.75481 17.2153 1.2062 16.4167 0.817312 15.5C0.428423 14.5833 0.233978 13.5833 0.233978 12.5C0.233978 11.4167 0.428423 10.4167 0.817312 9.5C1.2062 8.58333 1.75481 7.79167 2.46315 7.125C3.18537 6.44445 4.02565 5.92361 4.98398 5.5625C5.94231 5.1875 6.99092 5 8.12981 5C9.36592 5 10.477 5.20139 11.4631 5.60417C12.4631 6.00694 13.3034 6.59722 13.984 7.375L12.2756 9.04167C11.7062 8.47222 11.0881 8.05556 10.4215 7.79167C9.7687 7.51389 9.04648 7.375 8.25481 7.375C7.49092 7.375 6.78259 7.5 6.12981 7.75C5.47703 8 4.91453 8.35417 4.44231 8.8125C3.97009 9.27083 3.60203 9.8125 3.33815 10.4375C3.08815 11.0625 2.96315 11.75 2.96315 12.5C2.96315 13.2361 3.08815 13.9167 3.33815 14.5417C3.60203 15.1667 3.97009 15.7153 4.44231 16.1875C4.91453 16.6458 5.47009 17 6.10898 17.25C6.74787 17.5 7.4562 17.625 8.23398 17.625C8.9562 17.625 9.65065 17.5139 10.3173 17.2917C10.9979 17.0556 11.6437 16.6667 12.2548 16.125L13.7965 18.1458C13.0326 18.7569 12.1437 19.2222 11.1298 19.5417C10.1298 19.8472 9.11592 20 8.08815 20ZM11.234 17.7917V12.3333H13.7965V18.1458L11.234 17.7917Z" fill="black"/>
</svg>
