<svg width="52" height="52" viewBox="0 0 52 52" fill="none" xmlns="http://www.w3.org/2000/svg">
<g clip-path="url(#clip0_181_25490)">
<path d="M50.8495 12.846L50.9145 13.2706C50.2862 11.0412 48.5897 9.32086 46.4339 8.69471L46.3884 8.68387C42.3347 7.58322 26.0221 7.58322 26.0221 7.58322C26.0221 7.58322 9.75062 7.56155 5.65568 8.68387C3.45871 9.32086 1.76007 11.0412 1.14258 13.2251L1.13174 13.2706C-0.382735 21.181 -0.393568 30.6861 1.19891 39.1554L1.13174 38.7264C1.76007 40.9559 3.45654 42.6762 5.61235 43.3024L5.65785 43.3132C9.70729 44.416 26.0242 44.416 26.0242 44.416C26.0242 44.416 42.2935 44.416 46.3906 43.3132C48.5897 42.6762 50.2884 40.9559 50.9059 38.7719L50.9167 38.7264C51.6057 35.0475 52 30.8139 52 26.4893C52 26.3311 52 26.1708 51.9979 26.0105C52 25.8631 52 25.6876 52 25.5121C52 21.1854 51.6057 16.9518 50.8495 12.846ZM20.8178 33.91V18.1087L34.3939 26.0213L20.8178 33.91Z" fill="white"/>
</g>
<defs>
<clipPath id="clip0_181_25490">
<rect width="51.9993" height="51.9993" fill="white" transform="translate(0.000732422)"/>
</clipPath>
</defs>
</svg>
